<svg version="1.1" viewBox="0.0 0.0 600.0 371.0" fill="none" stroke="none" stroke-linecap="square" stroke-miterlimit="10" width="600" height="371" xmlns:xlink="http://www.w3.org/1999/xlink" xmlns="http://www.w3.org/2000/svg"><path fill="#ffffff" d="M0 0L600.0 0L600.0 371.0L0 371.0L0 0Z" fill-rule="nonzero"/><path fill="#1b370d" d="M375.6489 225.94083C375.6489 268.7344 335.07788 306.33072 276.27325 318.03018L276.27325 297.51517C335.07788 285.8157 375.6489 248.21939 375.6489 205.42583Z" fill-rule="nonzero"/><path fill="#274e13" d="M238.88222 109.68916C307.12283 109.68916 364.92163 144.90125 374.34 192.21252C383.7584 239.52379 341.91406 284.45563 276.27325 297.51517L238.88222 205.42583Z" fill-rule="nonzero"/><path fill="#46bdc6" d="M237.14098 109.69692C237.72136 109.69175 238.30179 109.68916 238.88222 109.68916L238.88222 205.42583Z" fill-rule="nonzero"/><path fill="#38761d" d="M228.4446 109.968376C231.33853 109.813324 234.2388 109.72279 237.14098 109.69692L238.88222 205.42583Z" fill-rule="nonzero"/><path fill="#34a853" d="M215.49028 111.09986C219.7802 110.57857 224.10323 110.20097 228.4446 109.968376L238.88222 205.42583Z" fill-rule="nonzero"/><path fill="#93c47d" d="M166.94917 124.00058C181.8043 117.57012 198.28156 113.19098 215.49028 111.09986L238.88222 205.42583Z" fill-rule="nonzero"/><path fill="#4a7637" d="M276.27325 318.03018C235.02411 326.23688 190.66422 320.4255 156.44656 302.33224C122.22892 284.23898 102.115555 255.95885 102.115555 225.94083L102.115555 205.42583C102.115555 235.44385 122.22892 263.72397 156.44656 281.81723C190.66422 299.9105 235.02411 305.7219 276.27325 297.51517Z" fill-rule="nonzero"/><path fill="#6aa84f" d="M276.27325 297.51517C210.63245 310.5747 141.28316 287.76538 113.74565 244.05899C86.208145 200.3526 108.90968 149.1246 166.94917 124.00058L238.88222 205.42583Z" fill-rule="nonzero"/><path fill="#000000" d="M319.12854 201.08925L319.12854 198.683L314.76917 198.683L314.76917 197.558L319.3473 191.07362L320.3473 191.07362L320.3473 197.558L321.70667 197.558L321.70667 198.683L320.3473 198.683L320.3473 201.08925L319.12854 201.08925ZM319.12854 197.558L319.12854 193.04237L315.9879 197.558L319.12854 197.558ZM323.1754 198.46425L324.4723 198.35487Q324.6129 199.29237 325.12854 199.77675Q325.6598 200.2455 326.39417 200.2455Q327.2848 200.2455 327.89417 199.57362Q328.51917 198.90175 328.51917 197.808Q328.51917 196.7455 327.9254 196.13612Q327.33167 195.52675 326.37854 195.52675Q325.7848 195.52675 325.3004 195.808Q324.83167 196.07362 324.5504 196.4955L323.39417 196.35487L324.3629 191.19862L329.3473 191.19862L329.3473 192.38612L325.3473 192.38612L324.81604 195.07362Q325.7223 194.44862 326.70667 194.44862Q328.01917 194.44862 328.9098 195.35487Q329.81604 196.26112 329.81604 197.69862Q329.81604 199.058 329.0348 200.04237Q328.06604 201.26112 326.39417 201.26112Q325.0348 201.26112 324.1598 200.4955Q323.3004 199.72987 323.1754 198.46425ZM331.8629 201.08925L331.8629 199.683L333.26917 199.683L333.26917 201.08925L331.8629 201.08925ZM341.56604 193.52675L340.3473 193.6205Q340.1754 192.88612 339.87854 192.558Q339.37854 192.04237 338.64417 192.04237Q338.0504 192.04237 337.6129 192.3705Q337.0348 192.79237 336.69104 193.60487Q336.3629 194.41737 336.3473 195.91737Q336.7848 195.2455 337.4254 194.91737Q338.08167 194.58925 338.7848 194.58925Q340.01917 194.58925 340.87854 195.4955Q341.7379 196.40175 341.7379 197.83925Q341.7379 198.77675 341.33167 199.58925Q340.9254 200.40175 340.20667 200.83925Q339.50354 201.26112 338.5973 201.26112Q337.06604 201.26112 336.0973 200.13612Q335.12854 198.9955 335.12854 196.40175Q335.12854 193.4955 336.19104 192.16737Q337.12854 191.02675 338.7223 191.02675Q339.9098 191.02675 340.6598 191.69862Q341.4098 192.35487 341.56604 193.52675ZM336.5348 197.83925Q336.5348 198.47987 336.8004 199.058Q337.08167 199.63612 337.56604 199.94862Q338.0504 200.2455 338.58167 200.2455Q339.3629 200.2455 339.9254 199.6205Q340.4879 198.9955 340.4879 197.91737Q340.4879 196.8705 339.9254 196.27675Q339.37854 195.66737 338.5348 195.66737Q337.70667 195.66737 337.1129 196.27675Q336.5348 196.8705 336.5348 197.83925ZM343.4098 193.47987Q343.4098 192.40175 343.94104 191.65175Q344.4879 190.90175 345.51917 190.90175Q346.45667 190.90175 347.06604 191.57362Q347.69104 192.2455 347.69104 193.54237Q347.69104 194.82362 347.06604 195.51112Q346.44104 196.19862 345.5348 196.19862Q344.62854 196.19862 344.01917 195.52675Q343.4098 194.83925 343.4098 193.47987ZM345.5504 191.7455Q345.0973 191.7455 344.7848 192.15175Q344.4879 192.54237 344.4879 193.58925Q344.4879 194.558 344.7848 194.94862Q345.0973 195.33925 345.5504 195.33925Q346.01917 195.33925 346.31604 194.94862Q346.62854 194.558 346.62854 193.4955Q346.62854 192.52675 346.31604 192.13612Q346.00354 191.7455 345.5504 191.7455ZM345.5504 201.46425L351.0348 190.90175L352.0348 190.90175L346.58167 201.46425L345.5504 201.46425ZM349.89417 198.72987Q349.89417 197.65175 350.4254 196.91737Q350.9723 196.16737 352.00354 196.16737Q352.94104 196.16737 353.56604 196.83925Q354.19104 197.51112 354.19104 198.808Q354.19104 200.08925 353.56604 200.77675Q352.94104 201.46425 352.00354 201.46425Q351.0973 201.46425 350.4879 200.79237Q349.89417 200.10487 349.89417 198.72987ZM352.0348 197.01112Q351.56604 197.01112 351.26917 197.41737Q350.9723 197.808 350.9723 198.85487Q350.9723 199.82362 351.26917 200.21425Q351.58167 200.60487 352.0348 200.60487Q352.50354 200.60487 352.8004 200.21425Q353.1129 199.82362 353.1129 198.76112Q353.1129 197.79237 352.8004 197.40175Q352.50354 197.01112 352.0348 197.01112Z" fill-rule="nonzero"/><path fill="#000000" d="M138.6324 236.60011L138.6324 234.19386L134.27303 234.19386L134.27303 233.06886L138.85115 226.58449L139.85115 226.58449L139.85115 233.06886L141.21053 233.06886L141.21053 234.19386L139.85115 234.19386L139.85115 236.60011L138.6324 236.60011ZM138.6324 233.06886L138.6324 228.55324L135.49178 233.06886L138.6324 233.06886ZM142.67928 233.97511L143.97615 233.86574Q144.11678 234.80324 144.6324 235.28761Q145.16365 235.75636 145.89803 235.75636Q146.78865 235.75636 147.39803 235.08449Q148.02303 234.41261 148.02303 233.31886Q148.02303 232.25636 147.42928 231.64699Q146.83553 231.03761 145.8824 231.03761Q145.28865 231.03761 144.80428 231.31886Q144.33553 231.58449 144.05428 232.00636L142.89803 231.86574L143.86678 226.70949L148.85115 226.70949L148.85115 227.89699L144.85115 227.89699L144.3199 230.58449Q145.22615 229.95949 146.21053 229.95949Q147.52303 229.95949 148.41365 230.86574Q149.3199 231.77199 149.3199 233.20949Q149.3199 234.56886 148.53865 235.55324Q147.5699 236.77199 145.89803 236.77199Q144.53865 236.77199 143.66365 236.00636Q142.80428 235.24074 142.67928 233.97511ZM151.36678 236.60011L151.36678 235.19386L152.77303 235.19386L152.77303 236.60011L151.36678 236.60011ZM161.0699 229.03761L159.85115 229.13136Q159.67928 228.39699 159.3824 228.06886Q158.8824 227.55324 158.14803 227.55324Q157.55428 227.55324 157.11678 227.88136Q156.53865 228.30324 156.1949 229.11574Q155.86678 229.92824 155.85115 231.42824Q156.28865 230.75636 156.92928 230.42824Q157.58553 230.10011 158.28865 230.10011Q159.52303 230.10011 160.3824 231.00636Q161.24178 231.91261 161.24178 233.35011Q161.24178 234.28761 160.83553 235.10011Q160.42928 235.91261 159.71053 236.35011Q159.0074 236.77199 158.10115 236.77199Q156.5699 236.77199 155.60115 235.64699Q154.6324 234.50636 154.6324 231.91261Q154.6324 229.00636 155.6949 227.67824Q156.6324 226.53761 158.22615 226.53761Q159.41365 226.53761 160.16365 227.20949Q160.91365 227.86574 161.0699 229.03761ZM156.03865 233.35011Q156.03865 233.99074 156.30428 234.56886Q156.58553 235.14699 157.0699 235.45949Q157.55428 235.75636 158.08553 235.75636Q158.86678 235.75636 159.42928 235.13136Q159.99178 234.50636 159.99178 233.42824Q159.99178 232.38136 159.42928 231.78761Q158.8824 231.17824 158.03865 231.17824Q157.21053 231.17824 156.61678 231.78761Q156.03865 232.38136 156.03865 233.35011ZM162.91365 228.99074Q162.91365 227.91261 163.4449 227.16261Q163.99178 226.41261 165.02303 226.41261Q165.96053 226.41261 166.5699 227.08449Q167.1949 227.75636 167.1949 229.05324Q167.1949 230.33449 166.5699 231.02199Q165.9449 231.70949 165.03865 231.70949Q164.1324 231.70949 163.52303 231.03761Q162.91365 230.35011 162.91365 228.99074ZM165.05428 227.25636Q164.60115 227.25636 164.28865 227.66261Q163.99178 228.05324 163.99178 229.10011Q163.99178 230.06886 164.28865 230.45949Q164.60115 230.85011 165.05428 230.85011Q165.52303 230.85011 165.8199 230.45949Q166.1324 230.06886 166.1324 229.00636Q166.1324 228.03761 165.8199 227.64699Q165.5074 227.25636 165.05428 227.25636ZM165.05428 236.97511L170.53865 226.41261L171.53865 226.41261L166.08553 236.97511L165.05428 236.97511ZM169.39803 234.24074Q169.39803 233.16261 169.92928 232.42824Q170.47615 231.67824 171.5074 231.67824Q172.4449 231.67824 173.0699 232.35011Q173.6949 233.02199 173.6949 234.31886Q173.6949 235.60011 173.0699 236.28761Q172.4449 236.97511 171.5074 236.97511Q170.60115 236.97511 169.99178 236.30324Q169.39803 235.61574 169.39803 234.24074ZM171.53865 232.52199Q171.0699 232.52199 170.77303 232.92824Q170.47615 233.31886 170.47615 234.36574Q170.47615 235.33449 170.77303 235.72511Q171.08553 236.11574 171.53865 236.11574Q172.0074 236.11574 172.30428 235.72511Q172.61678 235.33449 172.61678 234.27199Q172.61678 233.30324 172.30428 232.91261Q172.0074 232.52199 171.53865 232.52199Z" fill-rule="nonzero"/><path fill="#274e13" d="M489.45 85.916664C489.45 89.23038 486.7637 91.916664 483.45 91.916664C480.1363 91.916664 477.45 89.23038 477.45 85.916664C477.45 82.60296 480.1363 79.916664 483.45 79.916664C486.7637 79.916664 489.45 82.60296 489.45 85.916664Z" fill-rule="nonzero"/><path fill="#1a1a1a" d="M504.5125 86.90104L505.6375 87.197914Q505.27814 88.58854 504.35626 89.322914Q503.4344 90.05729 502.09064 90.05729Q500.7 90.05729 499.825 89.49479Q498.95 88.93229 498.4969 87.86979Q498.04376 86.791664 498.04376 85.55729Q498.04376 84.21354 498.5594 83.21354Q499.075 82.21354 500.0125 81.697914Q500.96564 81.18229 502.10626 81.18229Q503.3875 81.18229 504.2625 81.83854Q505.15314 82.49479 505.4969 83.68229L504.3719 83.947914Q504.075 83.010414 503.4969 82.58854Q502.9344 82.15104 502.075 82.15104Q501.09064 82.15104 500.41876 82.635414Q499.7625 83.104164 499.48126 83.90104Q499.21564 84.697914 499.21564 85.55729Q499.21564 86.65104 499.52814 87.46354Q499.85626 88.27604 500.52814 88.68229Q501.2 89.08854 501.9969 89.08854Q502.95 89.08854 503.60626 88.541664Q504.27814 87.99479 504.5125 86.90104ZM511.3094 89.15104Q510.71564 89.65104 510.16876 89.854164Q509.6375 90.05729 509.0125 90.05729Q507.98126 90.05729 507.4344 89.55729Q506.8875 89.05729 506.8875 88.27604Q506.8875 87.822914 507.09064 87.447914Q507.29376 87.05729 507.6375 86.83854Q507.98126 86.604164 508.40314 86.49479Q508.7 86.40104 509.34064 86.322914Q510.60626 86.18229 511.21564 85.96354Q511.21564 85.74479 511.21564 85.697914Q511.21564 85.041664 510.91876 84.77604Q510.5125 84.43229 509.71564 84.43229Q508.98126 84.43229 508.6219 84.697914Q508.2625 84.947914 508.09064 85.604164L507.0594 85.46354Q507.2 84.80729 507.52814 84.40104Q507.85626 83.99479 508.46564 83.77604Q509.075 83.55729 509.8719 83.55729Q510.66876 83.55729 511.16876 83.74479Q511.66876 83.93229 511.90314 84.21354Q512.1375 84.49479 512.23126 84.93229Q512.27814 85.197914 512.27814 85.90104L512.27814 87.30729Q512.27814 88.77604 512.34064 89.166664Q512.41876 89.55729 512.6219 89.916664L511.5125 89.916664Q511.35626 89.58854 511.3094 89.15104ZM511.21564 86.791664Q510.6375 87.02604 509.4969 87.197914Q508.84064 87.291664 508.575 87.416664Q508.3094 87.52604 508.15314 87.74479Q508.0125 87.96354 508.0125 88.24479Q508.0125 88.666664 508.325 88.947914Q508.65314 89.229164 509.2625 89.229164Q509.8719 89.229164 510.34064 88.96354Q510.825 88.697914 511.04376 88.229164Q511.21564 87.86979 511.21564 87.18229L511.21564 86.791664ZM514.23126 89.916664L514.23126 83.697914L515.1844 83.697914L515.1844 84.635414Q515.54376 83.979164 515.84064 83.77604Q516.15314 83.55729 516.52814 83.55729Q517.0594 83.55729 517.60626 83.885414L517.2469 84.86979Q516.85626 84.635414 516.48126 84.635414Q516.1219 84.635414 515.84064 84.854164Q515.575 85.05729 515.46564 85.43229Q515.27814 85.99479 515.27814 86.65104L515.27814 89.916664L514.23126 89.916664ZM519.21564 89.916664L518.23126 89.916664L518.23126 81.322914L519.29376 81.322914L519.29376 84.385414Q519.96564 83.55729 520.9969 83.55729Q521.575 83.55729 522.075 83.791664Q522.59064 84.010414 522.91876 84.43229Q523.2625 84.854164 523.45 85.447914Q523.6375 86.041664 523.6375 86.71354Q523.6375 88.30729 522.84064 89.18229Q522.04376 90.05729 520.95 90.05729Q519.84064 90.05729 519.21564 89.135414L519.21564 89.916664ZM519.2 86.760414Q519.2 87.86979 519.5125 88.36979Q520.0125 89.18229 520.85626 89.18229Q521.54376 89.18229 522.04376 88.58854Q522.5594 87.99479 522.5594 86.791664Q522.5594 85.572914 522.075 84.99479Q521.59064 84.416664 520.90314 84.416664Q520.21564 84.416664 519.7 85.02604Q519.2 85.61979 519.2 86.760414ZM524.85626 86.80729Q524.85626 85.072914 525.8094 84.24479Q526.60626 83.55729 527.7625 83.55729Q529.04376 83.55729 529.85626 84.40104Q530.6844 85.229164 530.6844 86.71354Q530.6844 87.916664 530.325 88.604164Q529.96564 89.291664 529.2625 89.68229Q528.575 90.05729 527.7625 90.05729Q526.46564 90.05729 525.65314 89.229164Q524.85626 88.385414 524.85626 86.80729ZM525.9344 86.80729Q525.9344 87.99479 526.45 88.58854Q526.98126 89.18229 527.7625 89.18229Q528.5594 89.18229 529.075 88.58854Q529.59064 87.99479 529.59064 86.77604Q529.59064 85.61979 529.0594 85.02604Q528.54376 84.43229 527.7625 84.43229Q526.98126 84.43229 526.45 85.02604Q525.9344 85.604164 525.9344 86.80729ZM532.2469 89.916664L532.2469 83.697914L533.1844 83.697914L533.1844 84.572914Q533.8719 83.55729 535.16876 83.55729Q535.73126 83.55729 536.2 83.760414Q536.6844 83.96354 536.91876 84.291664Q537.15314 84.61979 537.2469 85.05729Q537.29376 85.354164 537.29376 86.08854L537.29376 89.916664L536.2469 89.916664L536.2469 86.135414Q536.2469 85.479164 536.1219 85.166664Q535.9969 84.854164 535.6844 84.666664Q535.3719 84.46354 534.95 84.46354Q534.27814 84.46354 533.77814 84.90104Q533.29376 85.322914 533.29376 86.510414L533.29376 89.916664L532.2469 89.916664ZM541.2625 92.447914Q540.3875 91.33854 539.77814 89.86979Q539.1844 88.385414 539.1844 86.80729Q539.1844 85.416664 539.6219 84.135414Q540.15314 82.65104 541.2625 81.18229L542.0125 81.18229Q541.3094 82.40104 541.075 82.916664Q540.71564 83.729164 540.5125 84.604164Q540.2625 85.697914 540.2625 86.80729Q540.2625 89.635414 542.0125 92.447914L541.2625 92.447914ZM549.5125 86.90104L550.6375 87.197914Q550.27814 88.58854 549.35626 89.322914Q548.4344 90.05729 547.09064 90.05729Q545.7 90.05729 544.825 89.49479Q543.95 88.93229 543.4969 87.86979Q543.04376 86.791664 543.04376 85.55729Q543.04376 84.21354 543.5594 83.21354Q544.075 82.21354 545.0125 81.697914Q545.96564 81.18229 547.10626 81.18229Q548.3875 81.18229 549.2625 81.83854Q550.15314 82.49479 550.4969 83.68229L549.3719 83.947914Q549.075 83.010414 548.4969 82.58854Q547.9344 82.15104 547.075 82.15104Q546.09064 82.15104 545.41876 82.635414Q544.7625 83.104164 544.48126 83.90104Q544.21564 84.697914 544.21564 85.55729Q544.21564 86.65104 544.52814 87.46354Q544.85626 88.27604 545.52814 88.68229Q546.2 89.08854 546.9969 89.08854Q547.95 89.08854 548.60626 88.541664Q549.27814 87.99479 549.5125 86.90104ZM552.9344 92.447914L552.1844 92.447914Q553.9344 89.635414 553.9344 86.80729Q553.9344 85.71354 553.6844 84.61979Q553.48126 83.74479 553.1219 82.93229Q552.8875 82.416664 552.1844 81.18229L552.9344 81.18229Q554.02814 82.65104 554.5594 84.135414Q555.0125 85.416664 555.0125 86.80729Q555.0125 88.385414 554.40314 89.86979Q553.79376 91.33854 552.9344 92.447914Z" fill-rule="nonzero"/><path fill="#6aa84f" d="M489.45 109.916664C489.45 113.23038 486.7637 115.916664 483.45 115.916664C480.1363 115.916664 477.45 113.23038 477.45 109.916664C477.45 106.60296 480.1363 103.916664 483.45 103.916664C486.7637 103.916664 489.45 106.60296 489.45 109.916664Z" fill-rule="nonzero"/><path fill="#1a1a1a" d="M498.02814 109.729164Q498.02814 107.58854 499.16876 106.385414Q500.325 105.166664 502.1375 105.166664Q503.34064 105.166664 504.29376 105.74479Q505.2469 106.30729 505.7469 107.322914Q506.2469 108.33854 506.2469 109.635414Q506.2469 110.93229 505.71564 111.96354Q505.1844 112.99479 504.21564 113.52604Q503.2625 114.05729 502.1375 114.05729Q500.91876 114.05729 499.96564 113.479164Q499.0125 112.885414 498.5125 111.885414Q498.02814 110.86979 498.02814 109.729164ZM499.2 109.74479Q499.2 111.30729 500.02814 112.197914Q500.8719 113.08854 502.1375 113.08854Q503.41876 113.08854 504.2469 112.197914Q505.075 111.291664 505.075 109.61979Q505.075 108.572914 504.71564 107.791664Q504.3719 107.010414 503.6844 106.58854Q502.9969 106.15104 502.15314 106.15104Q500.95 106.15104 500.075 106.979164Q499.2 107.80729 499.2 109.74479ZM506.54376 113.916664L508.8094 110.68229L506.71564 107.697914L508.02814 107.697914L508.98126 109.15104Q509.2469 109.572914 509.41876 109.854164Q509.66876 109.46354 509.8875 109.166664L510.9344 107.697914L512.2 107.697914L510.04376 110.61979L512.35626 113.916664L511.075 113.916664L509.79376 111.979164L509.45 111.46354L507.8094 113.916664L506.54376 113.916664ZM512.2 116.30729L512.075 115.322914Q512.41876 115.416664 512.6844 115.416664Q513.02814 115.416664 513.23126 115.291664Q513.45 115.18229 513.59064 114.979164Q513.6844 114.80729 513.91876 114.18229Q513.9344 114.104164 514.0125 113.93229L511.6375 107.697914L512.77814 107.697914L514.075 111.291664Q514.325 111.979164 514.52814 112.74479Q514.71564 112.010414 514.96564 111.322914L516.29376 107.697914L517.34064 107.697914L514.98126 114.02604Q514.59064 115.041664 514.3875 115.43229Q514.10626 115.96354 513.73126 116.197914Q513.3719 116.447914 512.8719 116.447914Q512.575 116.447914 512.2 116.30729ZM517.04376 114.43229L518.075 114.58854Q518.1375 115.05729 518.4344 115.27604Q518.825 115.572914 519.4969 115.572914Q520.23126 115.572914 520.6219 115.27604Q521.02814 114.979164 521.16876 114.46354Q521.2625 114.135414 521.2469 113.104164Q520.5594 113.916664 519.52814 113.916664Q518.2469 113.916664 517.54376 112.99479Q516.84064 112.05729 516.84064 110.77604Q516.84064 109.885414 517.15314 109.135414Q517.48126 108.36979 518.09064 107.96354Q518.7 107.55729 519.52814 107.55729Q520.6375 107.55729 521.35626 108.447914L521.35626 107.697914L522.325 107.697914L522.325 113.072914Q522.325 114.52604 522.02814 115.135414Q521.73126 115.74479 521.09064 116.08854Q520.45 116.447914 519.5125 116.447914Q518.40314 116.447914 517.71564 115.947914Q517.02814 115.447914 517.04376 114.43229ZM517.91876 110.697914Q517.91876 111.916664 518.40314 112.479164Q518.8875 113.041664 519.6219 113.041664Q520.35626 113.041664 520.84064 112.479164Q521.34064 111.916664 521.34064 110.729164Q521.34064 109.58854 520.825 109.010414Q520.325 108.43229 519.60626 108.43229Q518.90314 108.43229 518.40314 109.010414Q517.91876 109.572914 517.91876 110.697914ZM528.4969 111.916664L529.59064 112.041664Q529.34064 112.99479 528.6375 113.52604Q527.9344 114.05729 526.85626 114.05729Q525.4969 114.05729 524.6844 113.21354Q523.8875 112.36979 523.8875 110.854164Q523.8875 109.291664 524.7 108.43229Q525.5125 107.55729 526.79376 107.55729Q528.04376 107.55729 528.825 108.40104Q529.6219 109.24479 529.6219 110.791664Q529.6219 110.885414 529.6219 111.072914L524.98126 111.072914Q525.04376 112.104164 525.5594 112.65104Q526.075 113.18229 526.85626 113.18229Q527.4344 113.18229 527.84064 112.885414Q528.2625 112.572914 528.4969 111.916664ZM525.04376 110.21354L528.5125 110.21354Q528.45 109.416664 528.1219 109.02604Q527.60626 108.416664 526.8094 108.416664Q526.075 108.416664 525.575 108.90104Q525.09064 109.385414 525.04376 110.21354ZM531.2469 113.916664L531.2469 107.697914L532.1844 107.697914L532.1844 108.572914Q532.8719 107.55729 534.16876 107.55729Q534.73126 107.55729 535.2 107.760414Q535.6844 107.96354 535.91876 108.291664Q536.15314 108.61979 536.2469 109.05729Q536.29376 109.354164 536.29376 110.08854L536.29376 113.916664L535.2469 113.916664L535.2469 110.135414Q535.2469 109.479164 535.1219 109.166664Q534.9969 108.854164 534.6844 108.666664Q534.3719 108.46354 533.95 108.46354Q533.27814 108.46354 532.77814 108.90104Q532.29376 109.322914 532.29376 110.510414L532.29376 113.916664L531.2469 113.916664ZM540.2625 116.447914Q539.3875 115.33854 538.77814 113.86979Q538.1844 112.385414 538.1844 110.80729Q538.1844 109.416664 538.6219 108.135414Q539.15314 106.65104 540.2625 105.18229L541.0125 105.18229Q540.3094 106.40104 540.075 106.916664Q539.71564 107.729164 539.5125 108.604164Q539.2625 109.697914 539.2625 110.80729Q539.2625 113.635414 541.0125 116.447914L540.2625 116.447914ZM542.02814 109.729164Q542.02814 107.58854 543.16876 106.385414Q544.325 105.166664 546.1375 105.166664Q547.34064 105.166664 548.29376 105.74479Q549.2469 106.30729 549.7469 107.322914Q550.2469 108.33854 550.2469 109.635414Q550.2469 110.93229 549.71564 111.96354Q549.1844 112.99479 548.21564 113.52604Q547.2625 114.05729 546.1375 114.05729Q544.91876 114.05729 543.96564 113.479164Q543.0125 112.885414 542.5125 111.885414Q542.02814 110.86979 542.02814 109.729164ZM543.2 109.74479Q543.2 111.30729 544.02814 112.197914Q544.8719 113.08854 546.1375 113.08854Q547.41876 113.08854 548.2469 112.197914Q549.075 111.291664 549.075 109.61979Q549.075 108.572914 548.71564 107.791664Q548.3719 107.010414 547.6844 106.58854Q546.9969 106.15104 546.15314 106.15104Q544.95 106.15104 544.075 106.979164Q543.2 107.80729 543.2 109.74479ZM551.9344 116.447914L551.1844 116.447914Q552.9344 113.635414 552.9344 110.80729Q552.9344 109.71354 552.6844 108.61979Q552.48126 107.74479 552.1219 106.93229Q551.8875 106.416664 551.1844 105.18229L551.9344 105.18229Q553.02814 106.65104 553.5594 108.135414Q554.0125 109.416664 554.0125 110.80729Q554.0125 112.385414 553.40314 113.86979Q552.79376 115.33854 551.9344 116.447914Z" fill-rule="nonzero"/><path fill="#93c47d" d="M489.45 133.91667C489.45 137.23038 486.7637 139.91667 483.45 139.91667C480.1363 139.91667 477.45 137.23038 477.45 133.91667C477.45 130.60295 480.1363 127.916664 483.45 127.916664C486.7637 127.916664 489.45 130.60295 489.45 133.91667Z" fill-rule="nonzero"/><path fill="#1a1a1a" d="M498.41876 137.91667L498.41876 129.32292L499.54376 129.32292L499.54376 132.85417L504.0125 132.85417L504.0125 129.32292L505.15314 129.32292L505.15314 137.91667L504.0125 137.91667L504.0125 133.8698L499.54376 133.8698L499.54376 137.91667L498.41876 137.91667ZM507.2 140.3073L507.075 139.32292Q507.41876 139.41667 507.6844 139.41667Q508.02814 139.41667 508.23126 139.29167Q508.45 139.1823 508.59064 138.97917Q508.6844 138.8073 508.91876 138.1823Q508.9344 138.10417 509.0125 137.9323L506.6375 131.69792L507.77814 131.69792L509.075 135.29167Q509.325 135.97917 509.52814 136.7448Q509.71564 136.01042 509.96564 135.32292L511.29376 131.69792L512.34064 131.69792L509.98126 138.02605Q509.59064 139.04167 509.3875 139.4323Q509.10626 139.96355 508.73126 140.19792Q508.3719 140.44792 507.8719 140.44792Q507.575 140.44792 507.2 140.3073ZM516.27814 137.91667L516.27814 137.13542Q515.6844 138.0573 514.54376 138.0573Q513.79376 138.0573 513.16876 137.65105Q512.54376 137.22917 512.2 136.4948Q511.85626 135.76042 511.85626 134.8073Q511.85626 133.88542 512.16876 133.1198Q512.48126 132.35417 513.10626 131.96355Q513.73126 131.5573 514.4969 131.5573Q515.0594 131.5573 515.4969 131.79167Q515.9344 132.02605 516.21564 132.40105L516.21564 129.32292L517.2625 129.32292L517.2625 137.91667L516.27814 137.91667ZM512.95 134.8073Q512.95 136.01042 513.45 136.60417Q513.95 137.1823 514.6375 137.1823Q515.325 137.1823 515.8094 136.6198Q516.29376 136.0573 516.29376 134.90105Q516.29376 133.6198 515.79376 133.02605Q515.3094 132.4323 514.59064 132.4323Q513.8875 132.4323 513.41876 133.01042Q512.95 133.57292 512.95 134.8073ZM519.23126 137.91667L519.23126 131.69792L520.1844 131.69792L520.1844 132.63542Q520.54376 131.97917 520.84064 131.77605Q521.15314 131.5573 521.52814 131.5573Q522.0594 131.5573 522.60626 131.88542L522.2469 132.8698Q521.85626 132.63542 521.48126 132.63542Q521.1219 132.63542 520.84064 132.85417Q520.575 133.0573 520.46564 133.4323Q520.27814 133.9948 520.27814 134.65105L520.27814 137.91667L519.23126 137.91667ZM522.85626 134.8073Q522.85626 133.07292 523.8094 132.2448Q524.60626 131.5573 525.7625 131.5573Q527.04376 131.5573 527.85626 132.40105Q528.6844 133.22917 528.6844 134.71355Q528.6844 135.91667 528.325 136.60417Q527.96564 137.29167 527.2625 137.6823Q526.575 138.0573 525.7625 138.0573Q524.46564 138.0573 523.65314 137.22917Q522.85626 136.38542 522.85626 134.8073ZM523.9344 134.8073Q523.9344 135.9948 524.45 136.58855Q524.98126 137.1823 525.7625 137.1823Q526.5594 137.1823 527.075 136.58855Q527.59064 135.9948 527.59064 134.77605Q527.59064 133.6198 527.0594 133.02605Q526.54376 132.4323 525.7625 132.4323Q524.98126 132.4323 524.45 133.02605Q523.9344 133.60417 523.9344 134.8073ZM529.6844 137.91667L529.6844 137.0573L533.65314 132.51042Q532.96564 132.54167 532.45 132.54167L529.91876 132.54167L529.91876 131.69792L535.0125 131.69792L535.0125 132.38542L531.6375 136.33855L530.98126 137.0573Q531.7 137.01042 532.3094 137.01042L535.2 137.01042L535.2 137.91667L529.6844 137.91667ZM539.4969 135.91667L540.59064 136.04167Q540.34064 136.9948 539.6375 137.52605Q538.9344 138.0573 537.85626 138.0573Q536.4969 138.0573 535.6844 137.21355Q534.8875 136.3698 534.8875 134.85417Q534.8875 133.29167 535.7 132.4323Q536.5125 131.5573 537.79376 131.5573Q539.04376 131.5573 539.825 132.40105Q540.6219 133.2448 540.6219 134.79167Q540.6219 134.88542 540.6219 135.07292L535.98126 135.07292Q536.04376 136.10417 536.5594 136.65105Q537.075 137.1823 537.85626 137.1823Q538.4344 137.1823 538.84064 136.88542Q539.2625 136.57292 539.4969 135.91667ZM536.04376 134.21355L539.5125 134.21355Q539.45 133.41667 539.1219 133.02605Q538.60626 132.41667 537.8094 132.41667Q537.075 132.41667 536.575 132.90105Q536.09064 133.38542 536.04376 134.21355ZM542.2469 137.91667L542.2469 131.69792L543.1844 131.69792L543.1844 132.57292Q543.8719 131.5573 545.16876 131.5573Q545.73126 131.5573 546.2 131.76042Q546.6844 131.96355 546.91876 132.29167Q547.15314 132.6198 547.2469 133.0573Q547.29376 133.35417 547.29376 134.08855L547.29376 137.91667L546.2469 137.91667L546.2469 134.13542Q546.2469 133.47917 546.1219 133.16667Q545.9969 132.85417 545.6844 132.66667Q545.3719 132.46355 544.95 132.46355Q544.27814 132.46355 543.77814 132.90105Q543.29376 133.32292 543.29376 134.51042L543.29376 137.91667L542.2469 137.91667ZM551.2625 140.44792Q550.3875 139.33855 549.77814 137.8698Q549.1844 136.38542 549.1844 134.8073Q549.1844 133.41667 549.6219 132.13542Q550.15314 130.65105 551.2625 129.1823L552.0125 129.1823Q551.3094 130.40105 551.075 130.91667Q550.71564 131.72917 550.5125 132.60417Q550.2625 133.69792 550.2625 134.8073Q550.2625 137.63542 552.0125 140.44792L551.2625 140.44792ZM553.41876 137.91667L553.41876 129.32292L554.54376 129.32292L554.54376 132.85417L559.0125 132.85417L559.0125 129.32292L560.15314 129.32292L560.15314 137.91667L559.0125 137.91667L559.0125 133.8698L554.54376 133.8698L554.54376 137.91667L553.41876 137.91667ZM562.9344 140.44792L562.1844 140.44792Q563.9344 137.63542 563.9344 134.8073Q563.9344 133.71355 563.6844 132.6198Q563.48126 131.7448 563.1219 130.9323Q562.8875 130.41667 562.1844 129.1823L562.9344 129.1823Q564.02814 130.65105 564.5594 132.13542Q565.0125 133.41667 565.0125 134.8073Q565.0125 136.38542 564.40314 137.8698Q563.79376 139.33855 562.9344 140.44792Z" fill-rule="nonzero"/><path fill="#34a853" d="M489.45 157.91667C489.45 161.23038 486.7637 163.91667 483.45 163.91667C480.1363 163.91667 477.45 161.23038 477.45 157.91667C477.45 154.60295 480.1363 151.91667 483.45 151.91667C486.7637 151.91667 489.45 154.60295 489.45 157.91667Z" fill-rule="nonzero"/><path fill="#1a1a1a" d="M498.3719 161.91667L498.3719 153.32292L499.52814 153.32292L504.04376 160.07292L504.04376 153.32292L505.1375 153.32292L505.1375 161.91667L503.96564 161.91667L499.45 155.16667L499.45 161.91667L498.3719 161.91667ZM507.2469 154.54167L507.2469 153.32292L508.3094 153.32292L508.3094 154.54167L507.2469 154.54167ZM507.2469 161.91667L507.2469 155.69792L508.3094 155.69792L508.3094 161.91667L507.2469 161.91667ZM512.54376 160.97917L512.7 161.90105Q512.2469 161.9948 511.90314 161.9948Q511.325 161.9948 511.0125 161.82292Q510.7 161.63542 510.5594 161.33855Q510.4344 161.04167 510.4344 160.08855L510.4344 156.51042L509.66876 156.51042L509.66876 155.69792L510.4344 155.69792L510.4344 154.15105L511.48126 153.52605L511.48126 155.69792L512.54376 155.69792L512.54376 156.51042L511.48126 156.51042L511.48126 160.15105Q511.48126 160.60417 511.52814 160.72917Q511.59064 160.85417 511.71564 160.9323Q511.84064 161.01042 512.075 161.01042Q512.2625 161.01042 512.54376 160.97917ZM513.23126 161.91667L513.23126 155.69792L514.1844 155.69792L514.1844 156.63542Q514.54376 155.97917 514.84064 155.77605Q515.15314 155.5573 515.52814 155.5573Q516.0594 155.5573 516.60626 155.88542L516.2469 156.8698Q515.85626 156.63542 515.48126 156.63542Q515.1219 156.63542 514.84064 156.85417Q514.575 157.0573 514.46564 157.4323Q514.27814 157.9948 514.27814 158.65105L514.27814 161.91667L513.23126 161.91667ZM516.85626 158.8073Q516.85626 157.07292 517.8094 156.2448Q518.60626 155.5573 519.7625 155.5573Q521.04376 155.5573 521.85626 156.40105Q522.6844 157.22917 522.6844 158.71355Q522.6844 159.91667 522.325 160.60417Q521.96564 161.29167 521.2625 161.6823Q520.575 162.0573 519.7625 162.0573Q518.46564 162.0573 517.65314 161.22917Q516.85626 160.38542 516.85626 158.8073ZM517.9344 158.8073Q517.9344 159.9948 518.45 160.58855Q518.98126 161.1823 519.7625 161.1823Q520.5594 161.1823 521.075 160.58855Q521.59064 159.9948 521.59064 158.77605Q521.59064 157.6198 521.0594 157.02605Q520.54376 156.4323 519.7625 156.4323Q518.98126 156.4323 518.45 157.02605Q517.9344 157.60417 517.9344 158.8073ZM524.04376 162.4323L525.075 162.58855Q525.1375 163.0573 525.4344 163.27605Q525.825 163.57292 526.4969 163.57292Q527.23126 163.57292 527.6219 163.27605Q528.02814 162.97917 528.16876 162.46355Q528.2625 162.13542 528.2469 161.10417Q527.5594 161.91667 526.52814 161.91667Q525.2469 161.91667 524.54376 160.9948Q523.84064 160.0573 523.84064 158.77605Q523.84064 157.88542 524.15314 157.13542Q524.48126 156.3698 525.09064 155.96355Q525.7 155.5573 526.52814 155.5573Q527.6375 155.5573 528.35626 156.44792L528.35626 155.69792L529.325 155.69792L529.325 161.07292Q529.325 162.52605 529.02814 163.13542Q528.73126 163.7448 528.09064 164.08855Q527.45 164.44792 526.5125 164.44792Q525.40314 164.44792 524.71564 163.94792Q524.02814 163.44792 524.04376 162.4323ZM524.91876 158.69792Q524.91876 159.91667 525.40314 160.47917Q525.8875 161.04167 526.6219 161.04167Q527.35626 161.04167 527.84064 160.47917Q528.34064 159.91667 528.34064 158.72917Q528.34064 157.58855 527.825 157.01042Q527.325 156.4323 526.60626 156.4323Q525.90314 156.4323 525.40314 157.01042Q524.91876 157.57292 524.91876 158.69792ZM535.4969 159.91667L536.59064 160.04167Q536.34064 160.9948 535.6375 161.52605Q534.9344 162.0573 533.85626 162.0573Q532.4969 162.0573 531.6844 161.21355Q530.8875 160.3698 530.8875 158.85417Q530.8875 157.29167 531.7 156.4323Q532.5125 155.5573 533.79376 155.5573Q535.04376 155.5573 535.825 156.40105Q536.6219 157.2448 536.6219 158.79167Q536.6219 158.88542 536.6219 159.07292L531.98126 159.07292Q532.04376 160.10417 532.5594 160.65105Q533.075 161.1823 533.85626 161.1823Q534.4344 161.1823 534.84064 160.88542Q535.2625 160.57292 535.4969 159.91667ZM532.04376 158.21355L535.5125 158.21355Q535.45 157.41667 535.1219 157.02605Q534.60626 156.41667 533.8094 156.41667Q533.075 156.41667 532.575 156.90105Q532.09064 157.38542 532.04376 158.21355ZM538.2469 161.91667L538.2469 155.69792L539.1844 155.69792L539.1844 156.57292Q539.8719 155.5573 541.16876 155.5573Q541.73126 155.5573 542.2 155.76042Q542.6844 155.96355 542.91876 156.29167Q543.15314 156.6198 543.2469 157.0573Q543.29376 157.35417 543.29376 158.08855L543.29376 161.91667L542.2469 161.91667L542.2469 158.13542Q542.2469 157.47917 542.1219 157.16667Q541.9969 156.85417 541.6844 156.66667Q541.3719 156.46355 540.95 156.46355Q540.27814 156.46355 539.77814 156.90105Q539.29376 157.32292 539.29376 158.51042L539.29376 161.91667L538.2469 161.91667ZM547.2625 164.44792Q546.3875 163.33855 545.77814 161.8698Q545.1844 160.38542 545.1844 158.8073Q545.1844 157.41667 545.6219 156.13542Q546.15314 154.65105 547.2625 153.1823L548.0125 153.1823Q547.3094 154.40105 547.075 154.91667Q546.71564 155.72917 546.5125 156.60417Q546.2625 157.69792 546.2625 158.8073Q546.2625 161.63542 548.0125 164.44792L547.2625 164.44792ZM549.3719 161.91667L549.3719 153.32292L550.52814 153.32292L555.04376 160.07292L555.04376 153.32292L556.1375 153.32292L556.1375 161.91667L554.96564 161.91667L550.45 155.16667L550.45 161.91667L549.3719 161.91667ZM558.9344 164.44792L558.1844 164.44792Q559.9344 161.63542 559.9344 158.8073Q559.9344 157.71355 559.6844 156.6198Q559.48126 155.7448 559.1219 154.9323Q558.8875 154.41667 558.1844 153.1823L558.9344 153.1823Q560.02814 154.65105 560.5594 156.13542Q561.0125 157.41667 561.0125 158.8073Q561.0125 160.38542 560.40314 161.8698Q559.79376 163.33855 558.9344 164.44792Z" fill-rule="nonzero"/><path fill="#38761d" d="M489.45 181.91667C489.45 185.23038 486.7637 187.91667 483.45 187.91667C480.1363 187.91667 477.45 185.23038 477.45 181.91667C477.45 178.60295 480.1363 175.91667 483.45 175.91667C486.7637 175.91667 489.45 178.60295 489.45 181.91667Z" fill-rule="nonzero"/><path fill="#1a1a1a" d="M498.3719 185.91667L498.3719 177.32292L501.6219 177.32292Q502.46564 177.32292 502.91876 177.40105Q503.5594 177.51042 503.98126 177.8073Q504.41876 178.10417 504.66876 178.63542Q504.9344 179.16667 504.9344 179.8073Q504.9344 180.90105 504.23126 181.66667Q503.54376 182.41667 501.71564 182.41667L499.5125 182.41667L499.5125 185.91667L498.3719 185.91667ZM499.5125 181.41667L501.73126 181.41667Q502.84064 181.41667 503.29376 181.01042Q503.7625 180.58855 503.7625 179.83855Q503.7625 179.3073 503.48126 178.9323Q503.21564 178.54167 502.77814 178.41667Q502.48126 178.33855 501.71564 178.33855L499.5125 178.33855L499.5125 181.41667ZM505.85626 182.8073Q505.85626 181.07292 506.8094 180.2448Q507.60626 179.5573 508.7625 179.5573Q510.04376 179.5573 510.85626 180.40105Q511.6844 181.22917 511.6844 182.71355Q511.6844 183.91667 511.325 184.60417Q510.96564 185.29167 510.2625 185.6823Q509.575 186.0573 508.7625 186.0573Q507.46564 186.0573 506.65314 185.22917Q505.85626 184.38542 505.85626 182.8073ZM506.9344 182.8073Q506.9344 183.9948 507.45 184.58855Q507.98126 185.1823 508.7625 185.1823Q509.5594 185.1823 510.075 184.58855Q510.59064 183.9948 510.59064 182.77605Q510.59064 181.6198 510.0594 181.02605Q509.54376 180.4323 508.7625 180.4323Q507.98126 180.4323 507.45 181.02605Q506.9344 181.60417 506.9344 182.8073ZM515.54376 184.97917L515.7 185.90105Q515.2469 185.9948 514.90314 185.9948Q514.325 185.9948 514.0125 185.82292Q513.7 185.63542 513.5594 185.33855Q513.4344 185.04167 513.4344 184.08855L513.4344 180.51042L512.66876 180.51042L512.66876 179.69792L513.4344 179.69792L513.4344 178.15105L514.48126 177.52605L514.48126 179.69792L515.54376 179.69792L515.54376 180.51042L514.48126 180.51042L514.48126 184.15105Q514.48126 184.60417 514.52814 184.72917Q514.59064 184.85417 514.71564 184.9323Q514.84064 185.01042 515.075 185.01042Q515.2625 185.01042 515.54376 184.97917ZM520.3094 185.15105Q519.71564 185.65105 519.16876 185.85417Q518.6375 186.0573 518.0125 186.0573Q516.98126 186.0573 516.4344 185.5573Q515.8875 185.0573 515.8875 184.27605Q515.8875 183.82292 516.09064 183.44792Q516.29376 183.0573 516.6375 182.83855Q516.98126 182.60417 517.40314 182.4948Q517.7 182.40105 518.34064 182.32292Q519.60626 182.1823 520.21564 181.96355Q520.21564 181.7448 520.21564 181.69792Q520.21564 181.04167 519.91876 180.77605Q519.5125 180.4323 518.71564 180.4323Q517.98126 180.4323 517.6219 180.69792Q517.2625 180.94792 517.09064 181.60417L516.0594 181.46355Q516.2 180.8073 516.52814 180.40105Q516.85626 179.9948 517.46564 179.77605Q518.075 179.5573 518.8719 179.5573Q519.66876 179.5573 520.16876 179.7448Q520.66876 179.9323 520.90314 180.21355Q521.1375 180.4948 521.23126 180.9323Q521.27814 181.19792 521.27814 181.90105L521.27814 183.3073Q521.27814 184.77605 521.34064 185.16667Q521.41876 185.5573 521.6219 185.91667L520.5125 185.91667Q520.35626 185.58855 520.3094 185.15105ZM520.21564 182.79167Q519.6375 183.02605 518.4969 183.19792Q517.84064 183.29167 517.575 183.41667Q517.3094 183.52605 517.15314 183.7448Q517.0125 183.96355 517.0125 184.2448Q517.0125 184.66667 517.325 184.94792Q517.65314 185.22917 518.2625 185.22917Q518.8719 185.22917 519.34064 184.96355Q519.825 184.69792 520.04376 184.22917Q520.21564 183.8698 520.21564 183.1823L520.21564 182.79167ZM522.825 184.0573L523.85626 183.90105Q523.95 184.52605 524.34064 184.85417Q524.7469 185.1823 525.48126 185.1823Q526.2 185.1823 526.54376 184.90105Q526.90314 184.60417 526.90314 184.19792Q526.90314 183.83855 526.59064 183.63542Q526.3719 183.4948 525.5125 183.27605Q524.35626 182.97917 523.90314 182.77605Q523.46564 182.5573 523.23126 182.1823Q522.9969 181.8073 522.9969 181.33855Q522.9969 180.9323 523.1844 180.57292Q523.3719 180.21355 523.7 179.97917Q523.95 179.8073 524.3719 179.6823Q524.79376 179.5573 525.29376 179.5573Q526.0125 179.5573 526.5594 179.77605Q527.1219 179.97917 527.3875 180.33855Q527.65314 180.69792 527.7469 181.29167L526.71564 181.4323Q526.65314 180.96355 526.3094 180.69792Q525.98126 180.41667 525.35626 180.41667Q524.6375 180.41667 524.325 180.66667Q524.0125 180.90105 524.0125 181.22917Q524.0125 181.4323 524.1375 181.58855Q524.27814 181.76042 524.54376 181.8698Q524.7 181.9323 525.48126 182.13542Q526.60626 182.44792 527.04376 182.63542Q527.48126 182.82292 527.73126 183.1823Q527.98126 183.54167 527.98126 184.08855Q527.98126 184.6198 527.66876 185.08855Q527.3719 185.54167 526.79376 185.8073Q526.21564 186.0573 525.48126 186.0573Q524.2625 186.0573 523.6219 185.5573Q522.9969 185.04167 522.825 184.0573ZM529.825 184.0573L530.85626 183.90105Q530.95 184.52605 531.34064 184.85417Q531.7469 185.1823 532.48126 185.1823Q533.2 185.1823 533.54376 184.90105Q533.90314 184.60417 533.90314 184.19792Q533.90314 183.83855 533.59064 183.63542Q533.3719 183.4948 532.5125 183.27605Q531.35626 182.97917 530.90314 182.77605Q530.46564 182.5573 530.23126 182.1823Q529.9969 181.8073 529.9969 181.33855Q529.9969 180.9323 530.1844 180.57292Q530.3719 180.21355 530.7 179.97917Q530.95 179.8073 531.3719 179.6823Q531.79376 179.5573 532.29376 179.5573Q533.0125 179.5573 533.5594 179.77605Q534.1219 179.97917 534.3875 180.33855Q534.65314 180.69792 534.7469 181.29167L533.71564 181.4323Q533.65314 180.96355 533.3094 180.69792Q532.98126 180.41667 532.35626 180.41667Q531.6375 180.41667 531.325 180.66667Q531.0125 180.90105 531.0125 181.22917Q531.0125 181.4323 531.1375 181.58855Q531.27814 181.76042 531.54376 181.8698Q531.7 181.9323 532.48126 182.13542Q533.60626 182.44792 534.04376 182.63542Q534.48126 182.82292 534.73126 183.1823Q534.98126 183.54167 534.98126 184.08855Q534.98126 184.6198 534.66876 185.08855Q534.3719 185.54167 533.79376 185.8073Q533.21564 186.0573 532.48126 186.0573Q531.2625 186.0573 530.6219 185.5573Q529.9969 185.04167 529.825 184.0573ZM537.2469 178.54167L537.2469 177.32292L538.3094 177.32292L538.3094 178.54167L537.2469 178.54167ZM537.2469 185.91667L537.2469 179.69792L538.3094 179.69792L538.3094 185.91667L537.2469 185.91667ZM544.3094 185.15105Q543.71564 185.65105 543.16876 185.85417Q542.6375 186.0573 542.0125 186.0573Q540.98126 186.0573 540.4344 185.5573Q539.8875 185.0573 539.8875 184.27605Q539.8875 183.82292 540.09064 183.44792Q540.29376 183.0573 540.6375 182.83855Q540.98126 182.60417 541.40314 182.4948Q541.7 182.40105 542.34064 182.32292Q543.60626 182.1823 544.21564 181.96355Q544.21564 181.7448 544.21564 181.69792Q544.21564 181.04167 543.91876 180.77605Q543.5125 180.4323 542.71564 180.4323Q541.98126 180.4323 541.6219 180.69792Q541.2625 180.94792 541.09064 181.60417L540.0594 181.46355Q540.2 180.8073 540.52814 180.40105Q540.85626 179.9948 541.46564 179.77605Q542.075 179.5573 542.8719 179.5573Q543.66876 179.5573 544.16876 179.7448Q544.66876 179.9323 544.90314 180.21355Q545.1375 180.4948 545.23126 180.9323Q545.27814 181.19792 545.27814 181.90105L545.27814 183.3073Q545.27814 184.77605 545.34064 185.16667Q545.41876 185.5573 545.6219 185.91667L544.5125 185.91667Q544.35626 185.58855 544.3094 185.15105ZM544.21564 182.79167Q543.6375 183.02605 542.4969 183.19792Q541.84064 183.29167 541.575 183.41667Q541.3094 183.52605 541.15314 183.7448Q541.0125 183.96355 541.0125 184.2448Q541.0125 184.66667 541.325 184.94792Q541.65314 185.22917 542.2625 185.22917Q542.8719 185.22917 543.34064 184.96355Q543.825 184.69792 544.04376 184.22917Q544.21564 183.8698 544.21564 183.1823L544.21564 182.79167ZM547.2469 185.91667L547.2469 179.69792L548.1844 179.69792L548.1844 180.57292Q548.48126 180.10417 548.96564 179.83855Q549.45 179.5573 550.075 179.5573Q550.7625 179.5573 551.2 179.83855Q551.65314 180.1198 551.825 180.63542Q552.575 179.5573 553.7469 179.5573Q554.6844 179.5573 555.16876 180.07292Q555.66876 180.57292 555.66876 181.65105L555.66876 185.91667L554.6219 185.91667L554.6219 181.9948Q554.6219 181.3698 554.5125 181.08855Q554.41876 180.8073 554.15314 180.63542Q553.8875 180.46355 553.5125 180.46355Q552.85626 180.46355 552.41876 180.90105Q551.9969 181.33855 551.9969 182.3073L551.9969 185.91667L550.9344 185.91667L550.9344 181.8698Q550.9344 181.16667 550.66876 180.82292Q550.41876 180.46355 549.84064 180.46355Q549.3875 180.46355 549.0125 180.69792Q548.6375 180.9323 548.46564 181.38542Q548.29376 181.83855 548.29376 182.6823L548.29376 185.91667L547.2469 185.91667ZM560.2625 188.44792Q559.3875 187.33855 558.77814 185.8698Q558.1844 184.38542 558.1844 182.8073Q558.1844 181.41667 558.6219 180.13542Q559.15314 178.65105 560.2625 177.1823L561.0125 177.1823Q560.3094 178.40105 560.075 178.91667Q559.71564 179.72917 559.5125 180.60417Q559.2625 181.69792 559.2625 182.8073Q559.2625 185.63542 561.0125 188.44792L560.2625 188.44792ZM562.325 185.91667L562.325 177.32292L563.46564 177.32292L563.46564 181.58855L567.73126 177.32292L569.27814 177.32292L565.66876 180.8073L569.4344 185.91667L567.9344 185.91667L564.8719 181.57292L563.46564 182.9323L563.46564 185.91667L562.325 185.91667ZM570.9344 188.44792L570.1844 188.44792Q571.9344 185.63542 571.9344 182.8073Q571.9344 181.71355 571.6844 180.6198Q571.48126 179.7448 571.1219 178.9323Q570.8875 178.41667 570.1844 177.1823L570.9344 177.1823Q572.02814 178.65105 572.5594 180.13542Q573.0125 181.41667 573.0125 182.8073Q573.0125 184.38542 572.40314 185.8698Q571.79376 187.33855 570.9344 188.44792Z" fill-rule="nonzero"/><path fill="#46bdc6" d="M489.45 205.91667C489.45 209.23038 486.7637 211.91667 483.45 211.91667C480.1363 211.91667 477.45 209.23038 477.45 205.91667C477.45 202.60295 480.1363 199.91667 483.45 199.91667C486.7637 199.91667 489.45 202.60295 489.45 205.91667Z" fill-rule="nonzero"/><path fill="#1a1a1a" d="M498.3719 209.91667L498.3719 201.32292L501.6219 201.32292Q502.46564 201.32292 502.91876 201.40105Q503.5594 201.51042 503.98126 201.8073Q504.41876 202.10417 504.66876 202.63542Q504.9344 203.16667 504.9344 203.8073Q504.9344 204.90105 504.23126 205.66667Q503.54376 206.41667 501.71564 206.41667L499.5125 206.41667L499.5125 209.91667L498.3719 209.91667ZM499.5125 205.41667L501.73126 205.41667Q502.84064 205.41667 503.29376 205.01042Q503.7625 204.58855 503.7625 203.83855Q503.7625 203.3073 503.48126 202.9323Q503.21564 202.54167 502.77814 202.41667Q502.48126 202.33855 501.71564 202.33855L499.5125 202.33855L499.5125 205.41667ZM506.2469 209.91667L506.2469 201.32292L507.29376 201.32292L507.29376 204.40105Q508.02814 203.5573 509.15314 203.5573Q509.85626 203.5573 510.35626 203.83855Q510.8719 204.10417 511.09064 204.58855Q511.3094 205.0573 511.3094 205.97917L511.3094 209.91667L510.2625 209.91667L510.2625 205.97917Q510.2625 205.1823 509.91876 204.82292Q509.575 204.46355 508.95 204.46355Q508.48126 204.46355 508.0594 204.71355Q507.65314 204.94792 507.46564 205.3698Q507.29376 205.77605 507.29376 206.51042L507.29376 209.91667L506.2469 209.91667ZM512.85626 206.8073Q512.85626 205.07292 513.8094 204.2448Q514.60626 203.5573 515.7625 203.5573Q517.04376 203.5573 517.85626 204.40105Q518.6844 205.22917 518.6844 206.71355Q518.6844 207.91667 518.325 208.60417Q517.96564 209.29167 517.2625 209.6823Q516.575 210.0573 515.7625 210.0573Q514.46564 210.0573 513.65314 209.22917Q512.85626 208.38542 512.85626 206.8073ZM513.9344 206.8073Q513.9344 207.9948 514.45 208.58855Q514.98126 209.1823 515.7625 209.1823Q516.5594 209.1823 517.075 208.58855Q517.59064 207.9948 517.59064 206.77605Q517.59064 205.6198 517.0594 205.02605Q516.54376 204.4323 515.7625 204.4323Q514.98126 204.4323 514.45 205.02605Q513.9344 205.60417 513.9344 206.8073ZM519.825 208.0573L520.85626 207.90105Q520.95 208.52605 521.34064 208.85417Q521.7469 209.1823 522.48126 209.1823Q523.2 209.1823 523.54376 208.90105Q523.90314 208.60417 523.90314 208.19792Q523.90314 207.83855 523.59064 207.63542Q523.3719 207.4948 522.5125 207.27605Q521.35626 206.97917 520.90314 206.77605Q520.46564 206.5573 520.23126 206.1823Q519.9969 205.8073 519.9969 205.33855Q519.9969 204.9323 520.1844 204.57292Q520.3719 204.21355 520.7 203.97917Q520.95 203.8073 521.3719 203.6823Q521.79376 203.5573 522.29376 203.5573Q523.0125 203.5573 523.5594 203.77605Q524.1219 203.97917 524.3875 204.33855Q524.65314 204.69792 524.7469 205.29167L523.71564 205.4323Q523.65314 204.96355 523.3094 204.69792Q522.98126 204.41667 522.35626 204.41667Q521.6375 204.41667 521.325 204.66667Q521.0125 204.90105 521.0125 205.22917Q521.0125 205.4323 521.1375 205.58855Q521.27814 205.76042 521.54376 205.8698Q521.7 205.9323 522.48126 206.13542Q523.60626 206.44792 524.04376 206.63542Q524.48126 206.82292 524.73126 207.1823Q524.98126 207.54167 524.98126 208.08855Q524.98126 208.6198 524.66876 209.08855Q524.3719 209.54167 523.79376 209.8073Q523.21564 210.0573 522.48126 210.0573Q521.2625 210.0573 520.6219 209.5573Q519.9969 209.04167 519.825 208.0573ZM527.2469 212.3073L527.2469 203.69792L528.2 203.69792L528.2 204.4948Q528.54376 204.02605 528.96564 203.79167Q529.40314 203.5573 530.0125 203.5573Q530.8094 203.5573 531.41876 203.96355Q532.02814 204.3698 532.325 205.1198Q532.6375 205.8698 532.6375 206.76042Q532.6375 207.71355 532.29376 208.47917Q531.96564 209.2448 531.3094 209.65105Q530.65314 210.0573 529.9344 210.0573Q529.40314 210.0573 528.98126 209.83855Q528.5594 209.60417 528.29376 209.27605L528.29376 212.3073L527.2469 212.3073ZM528.2 206.83855Q528.2 208.04167 528.6844 208.6198Q529.16876 209.1823 529.85626 209.1823Q530.5594 209.1823 531.0594 208.58855Q531.5594 207.9948 531.5594 206.7448Q531.5594 205.5573 531.075 204.97917Q530.59064 204.38542 529.90314 204.38542Q529.23126 204.38542 528.71564 205.01042Q528.2 205.63542 528.2 206.83855ZM534.2469 209.91667L534.2469 201.32292L535.29376 201.32292L535.29376 204.40105Q536.02814 203.5573 537.15314 203.5573Q537.85626 203.5573 538.35626 203.83855Q538.8719 204.10417 539.09064 204.58855Q539.3094 205.0573 539.3094 205.97917L539.3094 209.91667L538.2625 209.91667L538.2625 205.97917Q538.2625 205.1823 537.91876 204.82292Q537.575 204.46355 536.95 204.46355Q536.48126 204.46355 536.0594 204.71355Q535.65314 204.94792 535.46564 205.3698Q535.29376 205.77605 535.29376 206.51042L535.29376 209.91667L534.2469 209.91667ZM540.85626 206.8073Q540.85626 205.07292 541.8094 204.2448Q542.60626 203.5573 543.7625 203.5573Q545.04376 203.5573 545.85626 204.40105Q546.6844 205.22917 546.6844 206.71355Q546.6844 207.91667 546.325 208.60417Q545.96564 209.29167 545.2625 209.6823Q544.575 210.0573 543.7625 210.0573Q542.46564 210.0573 541.65314 209.22917Q540.85626 208.38542 540.85626 206.8073ZM541.9344 206.8073Q541.9344 207.9948 542.45 208.58855Q542.98126 209.1823 543.7625 209.1823Q544.5594 209.1823 545.075 208.58855Q545.59064 207.9948 545.59064 206.77605Q545.59064 205.6198 545.0594 205.02605Q544.54376 204.4323 543.7625 204.4323Q542.98126 204.4323 542.45 205.02605Q541.9344 205.60417 541.9344 206.8073ZM548.23126 209.91667L548.23126 203.69792L549.1844 203.69792L549.1844 204.63542Q549.54376 203.97917 549.84064 203.77605Q550.15314 203.5573 550.52814 203.5573Q551.0594 203.5573 551.60626 203.88542L551.2469 204.8698Q550.85626 204.63542 550.48126 204.63542Q550.1219 204.63542 549.84064 204.85417Q549.575 205.0573 549.46564 205.4323Q549.27814 205.9948 549.27814 206.65105L549.27814 209.91667L548.23126 209.91667ZM556.325 209.91667L556.325 208.9948Q555.59064 210.0573 554.34064 210.0573Q553.79376 210.0573 553.3094 209.85417Q552.84064 209.63542 552.60626 209.32292Q552.3719 208.9948 552.27814 208.52605Q552.21564 208.22917 552.21564 207.54167L552.21564 203.69792L553.27814 203.69792L553.27814 207.15105Q553.27814 207.96355 553.34064 208.26042Q553.4344 208.66667 553.7469 208.91667Q554.075 209.15105 554.5594 209.15105Q555.02814 209.15105 555.4344 208.91667Q555.85626 208.66667 556.02814 208.2448Q556.21564 207.82292 556.21564 207.02605L556.21564 203.69792L557.2625 203.69792L557.2625 209.91667L556.325 209.91667ZM558.825 208.0573L559.85626 207.90105Q559.95 208.52605 560.34064 208.85417Q560.7469 209.1823 561.48126 209.1823Q562.2 209.1823 562.54376 208.90105Q562.90314 208.60417 562.90314 208.19792Q562.90314 207.83855 562.59064 207.63542Q562.3719 207.4948 561.5125 207.27605Q560.35626 206.97917 559.90314 206.77605Q559.46564 206.5573 559.23126 206.1823Q558.9969 205.8073 558.9969 205.33855Q558.9969 204.9323 559.1844 204.57292Q559.3719 204.21355 559.7 203.97917Q559.95 203.8073 560.3719 203.6823Q560.79376 203.5573 561.29376 203.5573Q562.0125 203.5573 562.5594 203.77605Q563.1219 203.97917 563.3875 204.33855Q563.65314 204.69792 563.7469 205.29167L562.71564 205.4323Q562.65314 204.96355 562.3094 204.69792Q561.98126 204.41667 561.35626 204.41667Q560.6375 204.41667 560.325 204.66667Q560.0125 204.90105 560.0125 205.22917Q560.0125 205.4323 560.1375 205.58855Q560.27814 205.76042 560.54376 205.8698Q560.7 205.9323 561.48126 206.13542Q562.60626 206.44792 563.04376 206.63542Q563.48126 206.82292 563.73126 207.1823Q563.98126 207.54167 563.98126 208.08855Q563.98126 208.6198 563.66876 209.08855Q563.3719 209.54167 562.79376 209.8073Q562.21564 210.0573 561.48126 210.0573Q560.2625 210.0573 559.6219 209.5573Q558.9969 209.04167 558.825 208.0573ZM568.2625 212.44792Q567.3875 211.33855 566.77814 209.8698Q566.1844 208.38542 566.1844 206.8073Q566.1844 205.41667 566.6219 204.13542Q567.15314 202.65105 568.2625 201.1823L569.0125 201.1823Q568.3094 202.40105 568.075 202.91667Q567.71564 203.72917 567.5125 204.60417Q567.2625 205.69792 567.2625 206.8073Q567.2625 209.63542 569.0125 212.44792L568.2625 212.44792ZM570.3719 209.91667L570.3719 201.32292L573.6219 201.32292Q574.46564 201.32292 574.91876 201.40105Q575.5594 201.51042 575.98126 201.8073Q576.41876 202.10417 576.66876 202.63542Q576.9344 203.16667 576.9344 203.8073Q576.9344 204.90105 576.23126 205.66667Q575.54376 206.41667 573.71564 206.41667L571.5125 206.41667L571.5125 209.91667L570.3719 209.91667ZM571.5125 205.41667L573.73126 205.41667Q574.84064 205.41667 575.29376 205.01042Q575.7625 204.58855 575.7625 203.83855Q575.7625 203.3073 575.48126 202.9323Q575.21564 202.54167 574.77814 202.41667Q574.48126 202.33855 573.71564 202.33855L571.5125 202.33855L571.5125 205.41667ZM578.9344 212.44792L578.1844 212.44792Q579.9344 209.63542 579.9344 206.8073Q579.9344 205.71355 579.6844 204.6198Q579.48126 203.7448 579.1219 202.9323Q578.8875 202.41667 578.1844 201.1823L578.9344 201.1823Q580.02814 202.65105 580.5594 204.13542Q581.0125 205.41667 581.0125 206.8073Q581.0125 208.38542 580.40314 209.8698Q579.79376 211.33855 578.9344 212.44792Z" fill-rule="nonzero"/><path fill="#757575" d="M20.128124 37.55L20.128124 23.2375L26.471874 23.2375Q28.378124 23.2375 29.378124 23.628124Q30.378124 24.003124 30.971874 24.9875Q31.565624 25.95625 31.565624 27.14375Q31.565624 28.659374 30.58125 29.70625Q29.596874 30.753124 27.534374 31.034374Q28.284374 31.39375 28.675 31.753124Q29.503124 32.503124 30.253124 33.659374L32.7375 37.55L30.3625 37.55L28.45625 34.565624Q27.628124 33.284374 27.096874 32.596874Q26.565624 31.909374 26.128124 31.64375Q25.70625 31.3625 25.26875 31.253124Q24.940624 31.190624 24.221874 31.190624L22.01875 31.190624L22.01875 37.55L20.128124 37.55ZM22.01875 29.55L26.096874 29.55Q27.39375 29.55 28.1125 29.284374Q28.846874 29.01875 29.221874 28.425Q29.6125 27.83125 29.6125 27.14375Q29.6125 26.128124 28.878124 25.471874Q28.14375 24.815624 26.55 24.815624L22.01875 24.815624L22.01875 29.55ZM40.971874 34.20625L42.784374 34.440624Q42.3625 36.01875 41.190624 36.909374Q40.034374 37.784374 38.221874 37.784374Q35.95625 37.784374 34.6125 36.39375Q33.284374 34.9875 33.284374 32.45625Q33.284374 29.83125 34.628124 28.39375Q35.971874 26.940624 38.128124 26.940624Q40.20625 26.940624 41.51875 28.3625Q42.846874 29.76875 42.846874 32.346874Q42.846874 32.503124 42.83125 32.815624L35.096874 32.815624Q35.190624 34.51875 36.065624 35.425Q36.940624 36.33125 38.2375 36.33125Q39.20625 36.33125 39.878124 35.83125Q40.565624 35.315624 40.971874 34.20625ZM35.190624 31.3625L40.9875 31.3625Q40.878124 30.065624 40.33125 29.409374Q39.4875 28.39375 38.14375 28.39375Q36.940624 28.39375 36.1125 29.20625Q35.284374 30.003124 35.190624 31.3625ZM44.83125 37.55L44.83125 23.2375L46.58125 23.2375L46.58125 37.55L44.83125 37.55ZM55.64375 36.26875Q54.659374 37.096874 53.753124 37.440624Q52.846874 37.784374 51.815624 37.784374Q50.1125 37.784374 49.190624 36.95625Q48.26875 36.1125 48.26875 34.815624Q48.26875 34.05 48.6125 33.425Q48.971874 32.8 49.534374 32.425Q50.096874 32.034374 50.8 31.83125Q51.315624 31.70625 52.3625 31.565624Q54.4875 31.315624 55.4875 30.971874Q55.503124 30.6125 55.503124 30.503124Q55.503124 29.440624 55.003124 28.9875Q54.33125 28.39375 53.003124 28.39375Q51.753124 28.39375 51.159374 28.83125Q50.58125 29.26875 50.3 30.378124L48.58125 30.14375Q48.815624 29.034374 49.346874 28.3625Q49.878124 27.675 50.89375 27.315624Q51.909374 26.940624 53.253124 26.940624Q54.58125 26.940624 55.409374 27.253124Q56.2375 27.565624 56.628124 28.05Q57.01875 28.51875 57.175 29.2375Q57.26875 29.690624 57.26875 30.8625L57.26875 33.20625Q57.26875 35.659374 57.378124 36.315624Q57.4875 36.95625 57.83125 37.55L55.9875 37.55Q55.721874 37.003124 55.64375 36.26875ZM55.4875 32.346874Q54.534374 32.7375 52.6125 33.003124Q51.534374 33.159374 51.08125 33.3625Q50.64375 33.55 50.39375 33.925Q50.14375 34.3 50.14375 34.76875Q50.14375 35.471874 50.675 35.940624Q51.20625 36.409374 52.2375 36.409374Q53.253124 36.409374 54.034374 35.971874Q54.83125 35.51875 55.20625 34.753124Q55.4875 34.14375 55.4875 32.9875L55.4875 32.346874ZM63.70625 35.971874L63.95625 37.534374Q63.221874 37.690624 62.628124 37.690624Q61.675 37.690624 61.14375 37.39375Q60.628124 37.08125 60.409374 36.596874Q60.190624 36.096874 60.190624 34.51875L60.190624 28.55L58.909374 28.55L58.909374 27.175L60.190624 27.175L60.190624 24.6125L61.940624 23.55L61.940624 27.175L63.70625 27.175L63.70625 28.55L61.940624 28.55L61.940624 34.6125Q61.940624 35.3625 62.034374 35.58125Q62.128124 35.784374 62.33125 35.925Q62.55 36.05 62.940624 36.05Q63.221874 36.05 63.70625 35.971874ZM65.87813 25.253124L65.87813 23.2375L67.64375 23.2375L67.64375 25.253124L65.87813 25.253124ZM65.87813 37.55L65.87813 27.175L67.64375 27.175L67.64375 37.55L65.87813 37.55ZM72.75313 37.55L68.8 27.175L70.65938 27.175L72.89375 33.39375Q73.25313 34.39375 73.55 35.471874Q73.78438 34.659374 74.20625 33.503124L76.50313 27.175L78.31563 27.175L74.39375 37.55L72.75313 37.55ZM85.97188 34.20625L87.78438 34.440624Q87.3625 36.01875 86.19063 36.909374Q85.03438 37.784374 83.22188 37.784374Q80.95625 37.784374 79.6125 36.39375Q78.28438 34.9875 78.28438 32.45625Q78.28438 29.83125 79.62813 28.39375Q80.97188 26.940624 83.12813 26.940624Q85.20625 26.940624 86.51875 28.3625Q87.84688 29.76875 87.84688 32.346874Q87.84688 32.503124 87.83125 32.815624L80.09688 32.815624Q80.19063 34.51875 81.06563 35.425Q81.94063 36.33125 83.2375 36.33125Q84.20625 36.33125 84.87813 35.83125Q85.56563 35.315624 85.97188 34.20625ZM80.19063 31.3625L85.9875 31.3625Q85.87813 30.065624 85.33125 29.409374Q84.4875 28.39375 83.14375 28.39375Q81.94063 28.39375 81.1125 29.20625Q80.28438 30.003124 80.19063 31.3625ZM102.64375 36.26875Q101.65938 37.096874 100.75313 37.440624Q99.84688 37.784374 98.81563 37.784374Q97.1125 37.784374 96.19063 36.95625Q95.26875 36.1125 95.26875 34.815624Q95.26875 34.05 95.6125 33.425Q95.97188 32.8 96.53438 32.425Q97.09688 32.034374 97.8 31.83125Q98.31563 31.70625 99.3625 31.565624Q101.4875 31.315624 102.4875 30.971874Q102.50313 30.6125 102.50313 30.503124Q102.50313 29.440624 102.00313 28.9875Q101.33125 28.39375 100.00313 28.39375Q98.75313 28.39375 98.15938 28.83125Q97.58125 29.26875 97.3 30.378124L95.58125 30.14375Q95.81563 29.034374 96.34688 28.3625Q96.87813 27.675 97.89375 27.315624Q98.90938 26.940624 100.25313 26.940624Q101.58125 26.940624 102.40938 27.253124Q103.2375 27.565624 103.62813 28.05Q104.01875 28.51875 104.175 29.2375Q104.26875 29.690624 104.26875 30.8625L104.26875 33.20625Q104.26875 35.659374 104.37813 36.315624Q104.4875 36.95625 104.83125 37.55L102.9875 37.55Q102.72188 37.003124 102.64375 36.26875ZM102.4875 32.346874Q101.53438 32.7375 99.6125 33.003124Q98.53438 33.159374 98.08125 33.3625Q97.64375 33.55 97.39375 33.925Q97.14375 34.3 97.14375 34.76875Q97.14375 35.471874 97.675 35.940624Q98.20625 36.409374 99.2375 36.409374Q100.25313 36.409374 101.03438 35.971874Q101.83125 35.51875 102.20625 34.753124Q102.4875 34.14375 102.4875 32.9875L102.4875 32.346874ZM106.8625 37.55L106.8625 27.175L108.44063 27.175L108.44063 28.628124Q108.925 27.878124 109.7375 27.409374Q110.55 26.940624 111.58125 26.940624Q112.7375 26.940624 113.47188 27.425Q114.20625 27.89375 114.51875 28.753124Q115.75313 26.940624 117.72188 26.940624Q119.26875 26.940624 120.09688 27.8Q120.925 28.659374 120.925 30.425L120.925 37.55L119.175 37.55L119.175 31.01875Q119.175 29.95625 119.00313 29.503124Q118.83125 29.034374 118.37813 28.753124Q117.94063 28.471874 117.33125 28.471874Q116.2375 28.471874 115.50313 29.20625Q114.78438 29.925 114.78438 31.51875L114.78438 37.55L113.03438 37.55L113.03438 30.815624Q113.03438 29.64375 112.59688 29.065624Q112.175 28.471874 111.19063 28.471874Q110.45625 28.471874 109.81563 28.8625Q109.19063 29.253124 108.90938 30.003124Q108.62813 30.753124 108.62813 32.175L108.62813 37.55L106.8625 37.55ZM122.22188 32.3625Q122.22188 29.4875 123.81563 28.096874Q125.15938 26.940624 127.08125 26.940624Q129.22188 26.940624 130.56563 28.346874Q131.925 29.753124 131.925 32.221874Q131.925 34.221874 131.33125 35.378124Q130.7375 36.51875 129.58125 37.159374Q128.44063 37.784374 127.08125 37.784374Q124.89375 37.784374 123.55 36.39375Q122.22188 34.9875 122.22188 32.3625ZM124.01875 32.3625Q124.01875 34.3625 124.87813 35.346874Q125.75313 36.33125 127.08125 36.33125Q128.39375 36.33125 129.25313 35.346874Q130.12813 34.346874 130.12813 32.3Q130.12813 30.378124 129.25313 29.39375Q128.37813 28.39375 127.08125 28.39375Q125.75313 28.39375 124.87813 29.39375Q124.01875 30.378124 124.01875 32.3625ZM140.65938 37.55L140.65938 36.01875Q139.45625 37.784374 137.37813 37.784374Q136.45625 37.784374 135.65938 37.440624Q134.8625 37.08125 134.47188 36.55Q134.09688 36.01875 133.94063 35.2375Q133.83125 34.721874 133.83125 33.596874L133.83125 27.175L135.58125 27.175L135.58125 32.925Q135.58125 34.3 135.69063 34.784374Q135.8625 35.471874 136.39375 35.878124Q136.94063 36.26875 137.72188 36.26875Q138.51875 36.26875 139.20625 35.8625Q139.90938 35.45625 140.19063 34.76875Q140.4875 34.065624 140.4875 32.7375L140.4875 27.175L142.2375 27.175L142.2375 37.55L140.65938 37.55ZM143.8625 37.55L143.8625 27.175L145.45625 27.175L145.45625 28.659374Q146.59688 26.940624 148.75313 26.940624Q149.69063 26.940624 150.47188 27.284374Q151.26875 27.6125 151.65938 28.159374Q152.05 28.70625 152.20625 29.45625Q152.3 29.95625 152.3 31.175L152.3 37.55L150.53438 37.55L150.53438 31.2375Q150.53438 30.159374 150.33125 29.628124Q150.12813 29.096874 149.59688 28.784374Q149.08125 28.471874 148.37813 28.471874Q147.25313 28.471874 146.44063 29.190624Q145.62813 29.89375 145.62813 31.878124L145.62813 37.55L143.8625 37.55ZM157.70625 35.971874L157.95625 37.534374Q157.22188 37.690624 156.62813 37.690624Q155.675 37.690624 155.14375 37.39375Q154.62813 37.08125 154.40938 36.596874Q154.19063 36.096874 154.19063 34.51875L154.19063 28.55L152.90938 28.55L152.90938 27.175L154.19063 27.175L154.19063 24.6125L155.94063 23.55L155.94063 27.175L157.70625 27.175L157.70625 28.55L155.94063 28.55L155.94063 34.6125Q155.94063 35.3625 156.03438 35.58125Q156.12813 35.784374 156.33125 35.925Q156.55 36.05 156.94063 36.05Q157.22188 36.05 157.70625 35.971874ZM159.15938 34.45625L160.90938 34.175Q161.05 35.221874 161.72188 35.784374Q162.39375 36.33125 163.59688 36.33125Q164.8 36.33125 165.37813 35.846874Q165.97188 35.346874 165.97188 34.690624Q165.97188 34.096874 165.45625 33.753124Q165.09688 33.51875 163.65938 33.159374Q161.72188 32.659374 160.97188 32.315624Q160.2375 31.95625 159.84688 31.33125Q159.45625 30.690624 159.45625 29.925Q159.45625 29.2375 159.76875 28.64375Q160.09688 28.05 160.64375 27.659374Q161.05 27.3625 161.75313 27.159374Q162.47188 26.940624 163.28438 26.940624Q164.50313 26.940624 165.425 27.3Q166.34688 27.64375 166.78438 28.253124Q167.22188 28.846874 167.39375 29.846874L165.675 30.08125Q165.55 29.284374 164.9875 28.846874Q164.425 28.39375 163.40938 28.39375Q162.19063 28.39375 161.675 28.8Q161.15938 29.190624 161.15938 29.721874Q161.15938 30.065624 161.37813 30.346874Q161.58125 30.628124 162.05 30.815624Q162.31563 30.909374 163.59688 31.253124Q165.47188 31.753124 166.20625 32.08125Q166.94063 32.39375 167.3625 33.003124Q167.78438 33.596874 167.78438 34.503124Q167.78438 35.378124 167.26875 36.159374Q166.75313 36.940624 165.78438 37.3625Q164.81563 37.784374 163.59688 37.784374Q161.58125 37.784374 160.51875 36.940624Q159.45625 36.096874 159.15938 34.45625ZM179.22188 41.753124Q177.76875 39.925 176.76875 37.471874Q175.76875 35.003124 175.76875 32.3625Q175.76875 30.034374 176.51875 27.909374Q177.39375 25.440624 179.22188 22.9875L180.4875 22.9875Q179.3 25.01875 178.925 25.89375Q178.33125 27.2375 177.9875 28.70625Q177.56563 30.534374 177.56563 32.378124Q177.56563 37.065624 180.4875 41.753124L179.22188 41.753124ZM182.22188 32.3625Q182.22188 29.4875 183.81563 28.096874Q185.15938 26.940624 187.08125 26.940624Q189.22188 26.940624 190.56563 28.346874Q191.925 29.753124 191.925 32.221874Q191.925 34.221874 191.33125 35.378124Q190.7375 36.51875 189.58125 37.159374Q188.44063 37.784374 187.08125 37.784374Q184.89375 37.784374 183.55 36.39375Q182.22188 34.9875 182.22188 32.3625ZM184.01875 32.3625Q184.01875 34.3625 184.87813 35.346874Q185.75313 36.33125 187.08125 36.33125Q188.39375 36.33125 189.25313 35.346874Q190.12813 34.346874 190.12813 32.3Q190.12813 30.378124 189.25313 29.39375Q188.37813 28.39375 187.08125 28.39375Q185.75313 28.39375 184.87813 29.39375Q184.01875 30.378124 184.01875 32.3625ZM200.65938 37.55L200.65938 36.01875Q199.45625 37.784374 197.37813 37.784374Q196.45625 37.784374 195.65938 37.440624Q194.8625 37.08125 194.47188 36.55Q194.09688 36.01875 193.94063 35.2375Q193.83125 34.721874 193.83125 33.596874L193.83125 27.175L195.58125 27.175L195.58125 32.925Q195.58125 34.3 195.69063 34.784374Q195.8625 35.471874 196.39375 35.878124Q196.94063 36.26875 197.72188 36.26875Q198.51875 36.26875 199.20625 35.8625Q199.90938 35.45625 200.19063 34.76875Q200.4875 34.065624 200.4875 32.7375L200.4875 27.175L202.2375 27.175L202.2375 37.55L200.65938 37.55ZM207.70625 35.971874L207.95625 37.534374Q207.22188 37.690624 206.62813 37.690624Q205.675 37.690624 205.14375 37.39375Q204.62813 37.08125 204.40938 36.596874Q204.19063 36.096874 204.19063 34.51875L204.19063 28.55L202.90938 28.55L202.90938 27.175L204.19063 27.175L204.19063 24.6125L205.94063 23.55L205.94063 27.175L207.70625 27.175L207.70625 28.55L205.94063 28.55L205.94063 34.6125Q205.94063 35.3625 206.03438 35.58125Q206.12813 35.784374 206.33125 35.925Q206.55 36.05 206.94063 36.05Q207.22188 36.05 207.70625 35.971874ZM215.22188 32.3625Q215.22188 29.4875 216.81563 28.096874Q218.15938 26.940624 220.08125 26.940624Q222.22188 26.940624 223.56563 28.346874Q224.925 29.753124 224.925 32.221874Q224.925 34.221874 224.33125 35.378124Q223.7375 36.51875 222.58125 37.159374Q221.44063 37.784374 220.08125 37.784374Q217.89375 37.784374 216.55 36.39375Q215.22188 34.9875 215.22188 32.3625ZM217.01875 32.3625Q217.01875 34.3625 217.87813 35.346874Q218.75313 36.33125 220.08125 36.33125Q221.39375 36.33125 222.25313 35.346874Q223.12813 34.346874 223.12813 32.3Q223.12813 30.378124 222.25313 29.39375Q221.37813 28.39375 220.08125 28.39375Q218.75313 28.39375 217.87813 29.39375Q217.01875 30.378124 217.01875 32.3625ZM227.28438 37.55L227.28438 28.55L225.7375 28.55L225.7375 27.175L227.28438 27.175L227.28438 26.08125Q227.28438 25.034374 227.47188 24.51875Q227.72188 23.83125 228.3625 23.409374Q229.00313 22.9875 230.15938 22.9875Q230.90938 22.9875 231.8 23.159374L231.53438 24.690624Q230.9875 24.596874 230.50313 24.596874Q229.70625 24.596874 229.3625 24.940624Q229.03438 25.284374 229.03438 26.221874L229.03438 27.175L231.06563 27.175L231.06563 28.55L229.03438 28.55L229.03438 37.55L227.28438 37.55ZM245.00313 37.55L243.2375 37.55L243.2375 26.346874Q242.6125 26.95625 241.58125 27.565624Q240.55 28.159374 239.72188 28.471874L239.72188 26.76875Q241.20625 26.08125 242.3 25.096874Q243.40938 24.096874 243.8625 23.175L245.00313 23.175L245.00313 37.55ZM249.37813 30.4875Q249.37813 27.95625 249.89375 26.409374Q250.425 24.846874 251.45625 24.01875Q252.4875 23.175 254.05 23.175Q255.20625 23.175 256.0656 23.64375Q256.9406 24.096874 257.5031 24.971874Q258.0656 25.846874 258.39374 27.1125Q258.72186 28.3625 258.72186 30.4875Q258.72186 33.003124 258.1906 34.55Q257.675 36.096874 256.64374 36.95625Q255.62813 37.8 254.05 37.8Q251.97188 37.8 250.8 36.315624Q249.37813 34.51875 249.37813 30.4875ZM251.19063 30.4875Q251.19063 34.01875 252.00313 35.190624Q252.83125 36.346874 254.05 36.346874Q255.25313 36.346874 256.08124 35.175Q256.90936 34.003124 256.90936 30.4875Q256.90936 26.95625 256.08124 25.8Q255.25313 24.628124 254.03438 24.628124Q252.81563 24.628124 252.09688 25.659374Q251.19063 26.95625 251.19063 30.4875ZM260.3781 30.4875Q260.3781 27.95625 260.89374 26.409374Q261.425 24.846874 262.45624 24.01875Q263.4875 23.175 265.05 23.175Q266.20624 23.175 267.0656 23.64375Q267.9406 24.096874 268.5031 24.971874Q269.0656 25.846874 269.39374 27.1125Q269.72186 28.3625 269.72186 30.4875Q269.72186 33.003124 269.1906 34.55Q268.675 36.096874 267.64374 36.95625Q266.6281 37.8 265.05 37.8Q262.97186 37.8 261.8 36.315624Q260.3781 34.51875 260.3781 30.4875ZM262.1906 30.4875Q262.1906 34.01875 263.0031 35.190624Q263.83124 36.346874 265.05 36.346874Q266.2531 36.346874 267.08124 35.175Q267.90936 34.003124 267.90936 30.4875Q267.90936 26.95625 267.08124 25.8Q266.2531 24.628124 265.03436 24.628124Q263.8156 24.628124 263.09686 25.659374Q262.1906 26.95625 262.1906 30.4875ZM273.01874 41.753124L271.76874 41.753124Q274.675 37.065624 274.675 32.378124Q274.675 30.534374 274.26874 28.7375Q273.925 27.26875 273.33124 25.925Q272.95624 25.034374 271.76874 22.9875L273.01874 22.9875Q274.8625 25.440624 275.7375 27.909374Q276.4875 30.034374 276.4875 32.3625Q276.4875 35.003124 275.47186 37.471874Q274.47186 39.925 273.01874 41.753124ZM284.22186 32.3625Q284.22186 29.4875 285.8156 28.096874Q287.15936 26.940624 289.08124 26.940624Q291.22186 26.940624 292.5656 28.346874Q293.925 29.753124 293.925 32.221874Q293.925 34.221874 293.33124 35.378124Q292.7375 36.51875 291.58124 37.159374Q290.4406 37.784374 289.08124 37.784374Q286.89374 37.784374 285.55 36.39375Q284.22186 34.9875 284.22186 32.3625ZM286.01874 32.3625Q286.01874 34.3625 286.8781 35.346874Q287.7531 36.33125 289.08124 36.33125Q290.39374 36.33125 291.2531 35.346874Q292.1281 34.346874 292.1281 32.3Q292.1281 30.378124 291.2531 29.39375Q290.3781 28.39375 289.08124 28.39375Q287.7531 28.39375 286.8781 29.39375Q286.01874 30.378124 286.01874 32.3625ZM296.28436 37.55L296.28436 28.55L294.7375 28.55L294.7375 27.175L296.28436 27.175L296.28436 26.08125Q296.28436 25.034374 296.47186 24.51875Q296.72186 23.83125 297.3625 23.409374Q298.0031 22.9875 299.15936 22.9875Q299.90936 22.9875 300.8 23.159374L300.53436 24.690624Q299.9875 24.596874 299.5031 24.596874Q298.70624 24.596874 298.3625 24.940624Q298.03436 25.284374 298.03436 26.221874L298.03436 27.175L300.0656 27.175L300.0656 28.55L298.03436 28.55L298.03436 37.55L296.28436 37.55ZM311.70624 35.971874L311.95624 37.534374Q311.22186 37.690624 310.6281 37.690624Q309.675 37.690624 309.14374 37.39375Q308.6281 37.08125 308.40936 36.596874Q308.1906 36.096874 308.1906 34.51875L308.1906 28.55L306.90936 28.55L306.90936 27.175L308.1906 27.175L308.1906 24.6125L309.9406 23.55L309.9406 27.175L311.70624 27.175L311.70624 28.55L309.9406 28.55L309.9406 34.6125Q309.9406 35.3625 310.03436 35.58125Q310.1281 35.784374 310.33124 35.925Q310.55 36.05 310.9406 36.05Q311.22186 36.05 311.70624 35.971874ZM313.8625 37.55L313.8625 23.2375L315.6281 23.2375L315.6281 28.3625Q316.8625 26.940624 318.7375 26.940624Q319.8781 26.940624 320.72186 27.39375Q321.58124 27.846874 321.9406 28.659374Q322.3156 29.45625 322.3156 30.971874L322.3156 37.55L320.5656 37.55L320.5656 30.971874Q320.5656 29.659374 319.9875 29.065624Q319.40936 28.45625 318.3781 28.45625Q317.59686 28.45625 316.89374 28.8625Q316.20624 29.26875 315.90936 29.971874Q315.6281 30.659374 315.6281 31.878124L315.6281 37.55L313.8625 37.55ZM330.97186 34.20625L332.78436 34.440624Q332.3625 36.01875 331.1906 36.909374Q330.03436 37.784374 328.22186 37.784374Q325.95624 37.784374 324.6125 36.39375Q323.28436 34.9875 323.28436 32.45625Q323.28436 29.83125 324.6281 28.39375Q325.97186 26.940624 328.1281 26.940624Q330.20624 26.940624 331.51874 28.3625Q332.84686 29.76875 332.84686 32.346874Q332.84686 32.503124 332.83124 32.815624L325.09686 32.815624Q325.1906 34.51875 326.0656 35.425Q326.9406 36.33125 328.2375 36.33125Q329.20624 36.33125 329.8781 35.83125Q330.5656 35.315624 330.97186 34.20625ZM325.1906 31.3625L330.9875 31.3625Q330.8781 30.065624 330.33124 29.409374Q329.4875 28.39375 328.14374 28.39375Q326.9406 28.39375 326.1125 29.20625Q325.28436 30.003124 325.1906 31.3625ZM347.97186 34.20625L349.78436 34.440624Q349.3625 36.01875 348.1906 36.909374Q347.03436 37.784374 345.22186 37.784374Q342.95624 37.784374 341.6125 36.39375Q340.28436 34.9875 340.28436 32.45625Q340.28436 29.83125 341.6281 28.39375Q342.97186 26.940624 345.1281 26.940624Q347.20624 26.940624 348.51874 28.3625Q349.84686 29.76875 349.84686 32.346874Q349.84686 32.503124 349.83124 32.815624L342.09686 32.815624Q342.1906 34.51875 343.0656 35.425Q343.9406 36.33125 345.2375 36.33125Q346.20624 36.33125 346.8781 35.83125Q347.5656 35.315624 347.97186 34.20625ZM342.1906 31.3625L347.9875 31.3625Q347.8781 30.065624 347.33124 29.409374Q346.4875 28.39375 345.14374 28.39375Q343.9406 28.39375 343.1125 29.20625Q342.28436 30.003124 342.1906 31.3625ZM351.15936 34.45625L352.90936 34.175Q353.05 35.221874 353.72186 35.784374Q354.39374 36.33125 355.59686 36.33125Q356.8 36.33125 357.3781 35.846874Q357.97186 35.346874 357.97186 34.690624Q357.97186 34.096874 357.45624 33.753124Q357.09686 33.51875 355.65936 33.159374Q353.72186 32.659374 352.97186 32.315624Q352.2375 31.95625 351.84686 31.33125Q351.45624 30.690624 351.45624 29.925Q351.45624 29.2375 351.76874 28.64375Q352.09686 28.05 352.64374 27.659374Q353.05 27.3625 353.7531 27.159374Q354.47186 26.940624 355.28436 26.940624Q356.5031 26.940624 357.425 27.3Q358.34686 27.64375 358.78436 28.253124Q359.22186 28.846874 359.39374 29.846874L357.675 30.08125Q357.55 29.284374 356.9875 28.846874Q356.425 28.39375 355.40936 28.39375Q354.1906 28.39375 353.675 28.8Q353.15936 29.190624 353.15936 29.721874Q353.15936 30.065624 353.3781 30.346874Q353.58124 30.628124 354.05 30.815624Q354.3156 30.909374 355.59686 31.253124Q357.47186 31.753124 358.20624 32.08125Q358.9406 32.39375 359.3625 33.003124Q359.78436 33.596874 359.78436 34.503124Q359.78436 35.378124 359.26874 36.159374Q358.7531 36.940624 357.78436 37.3625Q356.8156 37.784374 355.59686 37.784374Q353.58124 37.784374 352.51874 36.940624Q351.45624 36.096874 351.15936 34.45625ZM361.15936 34.45625L362.90936 34.175Q363.05 35.221874 363.72186 35.784374Q364.39374 36.33125 365.59686 36.33125Q366.8 36.33125 367.3781 35.846874Q367.97186 35.346874 367.97186 34.690624Q367.97186 34.096874 367.45624 33.753124Q367.09686 33.51875 365.65936 33.159374Q363.72186 32.659374 362.97186 32.315624Q362.2375 31.95625 361.84686 31.33125Q361.45624 30.690624 361.45624 29.925Q361.45624 29.2375 361.76874 28.64375Q362.09686 28.05 362.64374 27.659374Q363.05 27.3625 363.7531 27.159374Q364.47186 26.940624 365.28436 26.940624Q366.5031 26.940624 367.425 27.3Q368.34686 27.64375 368.78436 28.253124Q369.22186 28.846874 369.39374 29.846874L367.675 30.08125Q367.55 29.284374 366.9875 28.846874Q366.425 28.39375 365.40936 28.39375Q364.1906 28.39375 363.675 28.8Q363.15936 29.190624 363.15936 29.721874Q363.15936 30.065624 363.3781 30.346874Q363.58124 30.628124 364.05 30.815624Q364.3156 30.909374 365.59686 31.253124Q367.47186 31.753124 368.20624 32.08125Q368.9406 32.39375 369.3625 33.003124Q369.78436 33.596874 369.78436 34.503124Q369.78436 35.378124 369.26874 36.159374Q368.7531 36.940624 367.78436 37.3625Q366.8156 37.784374 365.59686 37.784374Q363.58124 37.784374 362.51874 36.940624Q361.45624 36.096874 361.15936 34.45625ZM378.97186 34.20625L380.78436 34.440624Q380.3625 36.01875 379.1906 36.909374Q378.03436 37.784374 376.22186 37.784374Q373.95624 37.784374 372.6125 36.39375Q371.28436 34.9875 371.28436 32.45625Q371.28436 29.83125 372.6281 28.39375Q373.97186 26.940624 376.1281 26.940624Q378.20624 26.940624 379.51874 28.3625Q380.84686 29.76875 380.84686 32.346874Q380.84686 32.503124 380.83124 32.815624L373.09686 32.815624Q373.1906 34.51875 374.0656 35.425Q374.9406 36.33125 376.2375 36.33125Q377.20624 36.33125 377.8781 35.83125Q378.5656 35.315624 378.97186 34.20625ZM373.1906 31.3625L378.9875 31.3625Q378.8781 30.065624 378.33124 29.409374Q377.4875 28.39375 376.14374 28.39375Q374.9406 28.39375 374.1125 29.20625Q373.28436 30.003124 373.1906 31.3625ZM382.8625 37.55L382.8625 27.175L384.45624 27.175L384.45624 28.659374Q385.59686 26.940624 387.7531 26.940624Q388.6906 26.940624 389.47186 27.284374Q390.26874 27.6125 390.65936 28.159374Q391.05 28.70625 391.20624 29.45625Q391.3 29.95625 391.3 31.175L391.3 37.55L389.53436 37.55L389.53436 31.2375Q389.53436 30.159374 389.33124 29.628124Q389.1281 29.096874 388.59686 28.784374Q388.08124 28.471874 387.3781 28.471874Q386.2531 28.471874 385.4406 29.190624Q384.6281 29.89375 384.6281 31.878124L384.6281 37.55L382.8625 37.55ZM396.70624 35.971874L396.95624 37.534374Q396.22186 37.690624 395.6281 37.690624Q394.675 37.690624 394.14374 37.39375Q393.6281 37.08125 393.40936 36.596874Q393.1906 36.096874 393.1906 34.51875L393.1906 28.55L391.90936 28.55L391.90936 27.175L393.1906 27.175L393.1906 24.6125L394.9406 23.55L394.9406 27.175L396.70624 27.175L396.70624 28.55L394.9406 28.55L394.9406 34.6125Q394.9406 35.3625 395.03436 35.58125Q395.1281 35.784374 395.33124 35.925Q395.55 36.05 395.9406 36.05Q396.22186 36.05 396.70624 35.971874ZM398.8781 25.253124L398.8781 23.2375L400.64374 23.2375L400.64374 25.253124L398.8781 25.253124ZM398.8781 37.55L398.8781 27.175L400.64374 27.175L400.64374 37.55L398.8781 37.55ZM409.64374 36.26875Q408.65936 37.096874 407.7531 37.440624Q406.84686 37.784374 405.8156 37.784374Q404.1125 37.784374 403.1906 36.95625Q402.26874 36.1125 402.26874 34.815624Q402.26874 34.05 402.6125 33.425Q402.97186 32.8 403.53436 32.425Q404.09686 32.034374 404.8 31.83125Q405.3156 31.70625 406.3625 31.565624Q408.4875 31.315624 409.4875 30.971874Q409.5031 30.6125 409.5031 30.503124Q409.5031 29.440624 409.0031 28.9875Q408.33124 28.39375 407.0031 28.39375Q405.7531 28.39375 405.15936 28.83125Q404.58124 29.26875 404.3 30.378124L402.58124 30.14375Q402.8156 29.034374 403.34686 28.3625Q403.8781 27.675 404.89374 27.315624Q405.90936 26.940624 407.2531 26.940624Q408.58124 26.940624 409.40936 27.253124Q410.2375 27.565624 410.6281 28.05Q411.01874 28.51875 411.175 29.2375Q411.26874 29.690624 411.26874 30.8625L411.26874 33.20625Q411.26874 35.659374 411.3781 36.315624Q411.4875 36.95625 411.83124 37.55L409.9875 37.55Q409.72186 37.003124 409.64374 36.26875ZM409.4875 32.346874Q408.53436 32.7375 406.6125 33.003124Q405.53436 33.159374 405.08124 33.3625Q404.64374 33.55 404.39374 33.925Q404.14374 34.3 404.14374 34.76875Q404.14374 35.471874 404.675 35.940624Q405.20624 36.409374 406.2375 36.409374Q407.2531 36.409374 408.03436 35.971874Q408.83124 35.51875 409.20624 34.753124Q409.4875 34.14375 409.4875 32.9875L409.4875 32.346874ZM413.83124 37.55L413.83124 23.2375L415.58124 23.2375L415.58124 37.55L413.83124 37.55ZM423.8625 37.55L423.8625 27.175L425.45624 27.175L425.45624 28.659374Q426.59686 26.940624 428.7531 26.940624Q429.6906 26.940624 430.47186 27.284374Q431.26874 27.6125 431.65936 28.159374Q432.05 28.70625 432.20624 29.45625Q432.3 29.95625 432.3 31.175L432.3 37.55L430.53436 37.55L430.53436 31.2375Q430.53436 30.159374 430.33124 29.628124Q430.1281 29.096874 429.59686 28.784374Q429.08124 28.471874 428.3781 28.471874Q427.2531 28.471874 426.4406 29.190624Q425.6281 29.89375 425.6281 31.878124L425.6281 37.55L423.8625 37.55ZM440.65936 37.55L440.65936 36.01875Q439.45624 37.784374 437.3781 37.784374Q436.45624 37.784374 435.65936 37.440624Q434.8625 37.08125 434.47186 36.55Q434.09686 36.01875 433.9406 35.2375Q433.83124 34.721874 433.83124 33.596874L433.83124 27.175L435.58124 27.175L435.58124 32.925Q435.58124 34.3 435.6906 34.784374Q435.8625 35.471874 436.39374 35.878124Q436.9406 36.26875 437.72186 36.26875Q438.51874 36.26875 439.20624 35.8625Q439.90936 35.45625 440.1906 34.76875Q440.4875 34.065624 440.4875 32.7375L440.4875 27.175L442.2375 27.175L442.2375 37.55L440.65936 37.55ZM447.70624 35.971874L447.95624 37.534374Q447.22186 37.690624 446.6281 37.690624Q445.675 37.690624 445.14374 37.39375Q444.6281 37.08125 444.40936 36.596874Q444.1906 36.096874 444.1906 34.51875L444.1906 28.55L442.90936 28.55L442.90936 27.175L444.1906 27.175L444.1906 24.6125L445.9406 23.55L445.9406 27.175L447.70624 27.175L447.70624 28.55L445.9406 28.55L445.9406 34.6125Q445.9406 35.3625 446.03436 35.58125Q446.1281 35.784374 446.33124 35.925Q446.55 36.05 446.9406 36.05Q447.22186 36.05 447.70624 35.971874ZM449.84686 37.55L449.84686 27.175L451.425 27.175L451.425 28.753124Q452.03436 27.64375 452.55 27.3Q453.0656 26.940624 453.675 26.940624Q454.5656 26.940624 455.4875 27.503124L454.8781 29.14375Q454.2375 28.753124 453.59686 28.753124Q453.01874 28.753124 452.55 29.1125Q452.09686 29.45625 451.89374 30.065624Q451.6125 31.003124 451.6125 32.1125L451.6125 37.55L449.84686 37.55ZM456.8781 25.253124L456.8781 23.2375L458.64374 23.2375L458.64374 25.253124L456.8781 25.253124ZM456.8781 37.55L456.8781 27.175L458.64374 27.175L458.64374 37.55L456.8781 37.55ZM467.97186 34.20625L469.78436 34.440624Q469.3625 36.01875 468.1906 36.909374Q467.03436 37.784374 465.22186 37.784374Q462.95624 37.784374 461.6125 36.39375Q460.28436 34.9875 460.28436 32.45625Q460.28436 29.83125 461.6281 28.39375Q462.97186 26.940624 465.1281 26.940624Q467.20624 26.940624 468.51874 28.3625Q469.84686 29.76875 469.84686 32.346874Q469.84686 32.503124 469.83124 32.815624L462.09686 32.815624Q462.1906 34.51875 463.0656 35.425Q463.9406 36.33125 465.2375 36.33125Q466.20624 36.33125 466.8781 35.83125Q467.5656 35.315624 467.97186 34.20625ZM462.1906 31.3625L467.9875 31.3625Q467.8781 30.065624 467.33124 29.409374Q466.4875 28.39375 465.14374 28.39375Q463.9406 28.39375 463.1125 29.20625Q462.28436 30.003124 462.1906 31.3625ZM471.8625 37.55L471.8625 27.175L473.45624 27.175L473.45624 28.659374Q474.59686 26.940624 476.7531 26.940624Q477.6906 26.940624 478.47186 27.284374Q479.26874 27.6125 479.65936 28.159374Q480.05 28.70625 480.20624 29.45625Q480.3 29.95625 480.3 31.175L480.3 37.55L478.53436 37.55L478.53436 31.2375Q478.53436 30.159374 478.33124 29.628124Q478.1281 29.096874 477.59686 28.784374Q477.08124 28.471874 476.3781 28.471874Q475.2531 28.471874 474.4406 29.190624Q473.6281 29.89375 473.6281 31.878124L473.6281 37.55L471.8625 37.55ZM485.70624 35.971874L485.95624 37.534374Q485.22186 37.690624 484.6281 37.690624Q483.675 37.690624 483.14374 37.39375Q482.6281 37.08125 482.40936 36.596874Q482.1906 36.096874 482.1906 34.51875L482.1906 28.55L480.90936 28.55L480.90936 27.175L482.1906 27.175L482.1906 24.6125L483.9406 23.55L483.9406 27.175L485.70624 27.175L485.70624 28.55L483.9406 28.55L483.9406 34.6125Q483.9406 35.3625 484.03436 35.58125Q484.1281 35.784374 484.33124 35.925Q484.55 36.05 484.9406 36.05Q485.22186 36.05 485.70624 35.971874ZM487.15936 34.45625L488.90936 34.175Q489.05 35.221874 489.72186 35.784374Q490.39374 36.33125 491.59686 36.33125Q492.8 36.33125 493.3781 35.846874Q493.97186 35.346874 493.97186 34.690624Q493.97186 34.096874 493.45624 33.753124Q493.09686 33.51875 491.65936 33.159374Q489.72186 32.659374 488.97186 32.315624Q488.2375 31.95625 487.84686 31.33125Q487.45624 30.690624 487.45624 29.925Q487.45624 29.2375 487.76874 28.64375Q488.09686 28.05 488.64374 27.659374Q489.05 27.3625 489.7531 27.159374Q490.47186 26.940624 491.28436 26.940624Q492.5031 26.940624 493.425 27.3Q494.34686 27.64375 494.78436 28.253124Q495.22186 28.846874 495.39374 29.846874L493.675 30.08125Q493.55 29.284374 492.9875 28.846874Q492.425 28.39375 491.40936 28.39375Q490.1906 28.39375 489.675 28.8Q489.15936 29.190624 489.15936 29.721874Q489.15936 30.065624 489.3781 30.346874Q489.58124 30.628124 490.05 30.815624Q490.3156 30.909374 491.59686 31.253124Q493.47186 31.753124 494.20624 32.08125Q494.9406 32.39375 495.3625 33.003124Q495.78436 33.596874 495.78436 34.503124Q495.78436 35.378124 495.26874 36.159374Q494.7531 36.940624 493.78436 37.3625Q492.8156 37.784374 491.59686 37.784374Q489.58124 37.784374 488.51874 36.940624Q487.45624 36.096874 487.15936 34.45625ZM503.84686 37.55L503.84686 27.175L505.425 27.175L505.425 28.753124Q506.03436 27.64375 506.55 27.3Q507.0656 26.940624 507.675 26.940624Q508.5656 26.940624 509.4875 27.503124L508.8781 29.14375Q508.2375 28.753124 507.59686 28.753124Q507.01874 28.753124 506.55 29.1125Q506.09686 29.45625 505.89374 30.065624Q505.6125 31.003124 505.6125 32.1125L505.6125 37.55L503.84686 37.55ZM517.97186 34.20625L519.78436 34.440624Q519.3625 36.01875 518.1906 36.909374Q517.03436 37.784374 515.22186 37.784374Q512.95624 37.784374 511.6125 36.39375Q510.28436 34.9875 510.28436 32.45625Q510.28436 29.83125 511.6281 28.39375Q512.97186 26.940624 515.1281 26.940624Q517.20624 26.940624 518.51874 28.3625Q519.84686 29.76875 519.84686 32.346874Q519.84686 32.503124 519.83124 32.815624L512.09686 32.815624Q512.1906 34.51875 513.0656 35.425Q513.9406 36.33125 515.2375 36.33125Q516.20624 36.33125 516.8781 35.83125Q517.5656 35.315624 517.97186 34.20625ZM512.1906 31.3625L517.9875 31.3625Q517.8781 30.065624 517.33124 29.409374Q516.4875 28.39375 515.14374 28.39375Q513.9406 28.39375 513.1125 29.20625Q512.28436 30.003124 512.1906 31.3625ZM528.4875 41.51875L528.4875 36.440624Q528.0656 37.01875 527.33124 37.409374Q526.59686 37.784374 525.76874 37.784374Q523.925 37.784374 522.58124 36.315624Q521.2531 34.83125 521.2531 32.26875Q521.2531 30.70625 521.78436 29.471874Q522.33124 28.221874 523.3625 27.58125Q524.39374 26.940624 525.6281 26.940624Q527.55 26.940624 528.65936 28.565624L528.65936 27.175L530.2375 27.175L530.2375 41.51875L528.4875 41.51875ZM523.0656 32.33125Q523.0656 34.33125 523.89374 35.33125Q524.7375 36.33125 525.90936 36.33125Q527.03436 36.33125 527.84686 35.39375Q528.65936 34.440624 528.65936 32.4875Q528.65936 30.425 527.8 29.378124Q526.9406 28.33125 525.8 28.33125Q524.65936 28.33125 523.8625 29.3Q523.0656 30.26875 523.0656 32.33125ZM539.65936 37.55L539.65936 36.01875Q538.45624 37.784374 536.3781 37.784374Q535.45624 37.784374 534.65936 37.440624Q533.8625 37.08125 533.47186 36.55Q533.09686 36.01875 532.9406 35.2375Q532.83124 34.721874 532.83124 33.596874L532.83124 27.175L534.58124 27.175L534.58124 32.925Q534.58124 34.3 534.6906 34.784374Q534.8625 35.471874 535.39374 35.878124Q535.9406 36.26875 536.72186 36.26875Q537.51874 36.26875 538.20624 35.8625Q538.90936 35.45625 539.1906 34.76875Q539.4875 34.065624 539.4875 32.7375L539.4875 27.175L541.2375 27.175L541.2375 37.55L539.65936 37.55ZM542.8781 25.253124L542.8781 23.2375L544.64374 23.2375L544.64374 25.253124L542.8781 25.253124ZM542.8781 37.55L542.8781 27.175L544.64374 27.175L544.64374 37.55L542.8781 37.55ZM546.84686 37.55L546.84686 27.175L548.425 27.175L548.425 28.753124Q549.03436 27.64375 549.55 27.3Q550.0656 26.940624 550.675 26.940624Q551.5656 26.940624 552.4875 27.503124L551.8781 29.14375Q551.2375 28.753124 550.59686 28.753124Q550.01874 28.753124 549.55 29.1125Q549.09686 29.45625 548.89374 30.065624Q548.6125 31.003124 548.6125 32.1125L548.6125 37.55L546.84686 37.55ZM560.97186 34.20625L562.78436 34.440624Q562.3625 36.01875 561.1906 36.909374Q560.03436 37.784374 558.22186 37.784374Q555.95624 37.784374 554.6125 36.39375Q553.28436 34.9875 553.28436 32.45625Q553.28436 29.83125 554.6281 28.39375Q555.97186 26.940624 558.1281 26.940624Q560.20624 26.940624 561.51874 28.3625Q562.84686 29.76875 562.84686 32.346874Q562.84686 32.503124 562.83124 32.815624L555.09686 32.815624Q555.1906 34.51875 556.0656 35.425Q556.9406 36.33125 558.2375 36.33125Q559.20624 36.33125 559.8781 35.83125Q560.5656 35.315624 560.97186 34.20625ZM555.1906 31.3625L560.9875 31.3625Q560.8781 30.065624 560.33124 29.409374Q559.4875 28.39375 558.14374 28.39375Q556.9406 28.39375 556.1125 29.20625Q555.28436 30.003124 555.1906 31.3625ZM571.59686 37.55L571.59686 36.2375Q570.6125 37.784374 568.6906 37.784374Q567.45624 37.784374 566.40936 37.096874Q565.3781 36.409374 564.8 35.190624Q564.2375 33.971874 564.2375 32.378124Q564.2375 30.815624 564.7531 29.55Q565.26874 28.284374 566.3 27.6125Q567.34686 26.940624 568.6125 26.940624Q569.55 26.940624 570.28436 27.346874Q571.01874 27.7375 571.4875 28.3625L571.4875 23.2375L573.22186 23.2375L573.22186 37.55L571.59686 37.55ZM566.03436 32.378124Q566.03436 34.3625 566.8781 35.346874Q567.72186 36.33125 568.8625 36.33125Q570.01874 36.33125 570.8156 35.39375Q571.6281 34.45625 571.6281 32.51875Q571.6281 30.39375 570.8 29.39375Q569.9875 28.39375 568.78436 28.39375Q567.6125 28.39375 566.8156 29.3625Q566.03436 30.315624 566.03436 32.378124Z" fill-rule="nonzero"/><path fill="#757575" d="M21.4875 61.55L19.8625 61.55L19.8625 47.2375L21.6125 47.2375L21.6125 52.346874Q22.7375 50.940624 24.45625 50.940624Q25.409374 50.940624 26.26875 51.33125Q27.128124 51.721874 27.675 52.425Q28.221874 53.1125 28.534374 54.096874Q28.846874 55.08125 28.846874 56.20625Q28.846874 58.878124 27.534374 60.33125Q26.221874 61.784374 24.378124 61.784374Q22.534374 61.784374 21.4875 60.253124L21.4875 61.55ZM21.471874 56.284374Q21.471874 58.14375 21.971874 58.9875Q22.815624 60.33125 24.221874 60.33125Q25.378124 60.33125 26.20625 59.33125Q27.05 58.33125 27.05 56.346874Q27.05 54.315624 26.2375 53.3625Q25.440624 52.39375 24.3 52.39375Q23.14375 52.39375 22.3 53.39375Q21.471874 54.39375 21.471874 56.284374ZM30.784374 65.55L30.596874 63.89375Q31.175 64.05 31.596874 64.05Q32.190624 64.05 32.534374 63.846874Q32.89375 63.659374 33.1125 63.315624Q33.284374 63.05 33.659374 62.003124Q33.70625 61.846874 33.815624 61.565624L29.878124 51.175L31.76875 51.175L33.925 57.190624Q34.346874 58.33125 34.675 59.58125Q34.9875 58.378124 35.39375 57.221874L37.6125 51.175L39.378124 51.175L35.425 61.721874Q34.8 63.440624 34.440624 64.08125Q33.971874 64.95625 33.3625 65.34688Q32.76875 65.75313 31.925 65.75313Q31.409374 65.75313 30.784374 65.55ZM46.8625 61.55L46.8625 51.175L48.440624 51.175L48.440624 52.628124Q48.925 51.878124 49.7375 51.409374Q50.55 50.940624 51.58125 50.940624Q52.7375 50.940624 53.471874 51.425Q54.20625 51.89375 54.51875 52.753124Q55.753124 50.940624 57.721874 50.940624Q59.26875 50.940624 60.096874 51.8Q60.925 52.659374 60.925 54.425L60.925 61.55L59.175 61.55L59.175 55.01875Q59.175 53.95625 59.003124 53.503124Q58.83125 53.034374 58.378124 52.753124Q57.940624 52.471874 57.33125 52.471874Q56.2375 52.471874 55.503124 53.20625Q54.784374 53.925 54.784374 55.51875L54.784374 61.55L53.034374 61.55L53.034374 54.815624Q53.034374 53.64375 52.596874 53.065624Q52.175 52.471874 51.190624 52.471874Q50.45625 52.471874 49.815624 52.8625Q49.190624 53.253124 48.909374 54.003124Q48.628124 54.753124 48.628124 56.175L48.628124 61.55L46.8625 61.55ZM62.221874 56.3625Q62.221874 53.4875 63.815624 52.096874Q65.15938 50.940624 67.08125 50.940624Q69.22188 50.940624 70.56563 52.346874Q71.925 53.753124 71.925 56.221874Q71.925 58.221874 71.33125 59.378124Q70.7375 60.51875 69.58125 61.159374Q68.44063 61.784374 67.08125 61.784374Q64.89375 61.784374 63.55 60.39375Q62.221874 58.9875 62.221874 56.3625ZM64.01875 56.3625Q64.01875 58.3625 64.87813 59.346874Q65.75313 60.33125 67.08125 60.33125Q68.39375 60.33125 69.25313 59.346874Q70.12813 58.346874 70.12813 56.3Q70.12813 54.378124 69.25313 53.39375Q68.37813 52.39375 67.08125 52.39375Q65.75313 52.39375 64.87813 53.39375Q64.01875 54.378124 64.01875 56.3625ZM73.15938 58.45625L74.90938 58.175Q75.05 59.221874 75.72188 59.784374Q76.39375 60.33125 77.59688 60.33125Q78.8 60.33125 79.37813 59.846874Q79.97188 59.346874 79.97188 58.690624Q79.97188 58.096874 79.45625 57.753124Q79.09688 57.51875 77.65938 57.159374Q75.72188 56.659374 74.97188 56.315624Q74.2375 55.95625 73.84688 55.33125Q73.45625 54.690624 73.45625 53.925Q73.45625 53.2375 73.76875 52.64375Q74.09688 52.05 74.64375 51.659374Q75.05 51.3625 75.75313 51.159374Q76.47188 50.940624 77.28438 50.940624Q78.50313 50.940624 79.425 51.3Q80.34688 51.64375 80.78438 52.253124Q81.22188 52.846874 81.39375 53.846874L79.675 54.08125Q79.55 53.284374 78.9875 52.846874Q78.425 52.39375 77.40938 52.39375Q76.19063 52.39375 75.675 52.8Q75.15938 53.190624 75.15938 53.721874Q75.15938 54.065624 75.37813 54.346874Q75.58125 54.628124 76.05 54.815624Q76.31563 54.909374 77.59688 55.253124Q79.47188 55.753124 80.20625 56.08125Q80.94063 56.39375 81.3625 57.003124Q81.78438 57.596874 81.78438 58.503124Q81.78438 59.378124 81.26875 60.159374Q80.75313 60.940624 79.78438 61.3625Q78.81563 61.784374 77.59688 61.784374Q75.58125 61.784374 74.51875 60.940624Q73.45625 60.096874 73.15938 58.45625ZM87.70625 59.971874L87.95625 61.534374Q87.22188 61.690624 86.62813 61.690624Q85.675 61.690624 85.14375 61.39375Q84.62813 61.08125 84.40938 60.596874Q84.19063 60.096874 84.19063 58.51875L84.19063 52.55L82.90938 52.55L82.90938 51.175L84.19063 51.175L84.19063 48.6125L85.94063 47.55L85.94063 51.175L87.70625 51.175L87.70625 52.55L85.94063 52.55L85.94063 58.6125Q85.94063 59.3625 86.03438 59.58125Q86.12813 59.784374 86.33125 59.925Q86.55 60.05 86.94063 60.05Q87.22188 60.05 87.70625 59.971874ZM95.8625 65.51875L95.8625 51.175L97.47188 51.175L97.47188 52.51875Q98.03438 51.7375 98.7375 51.346874Q99.45625 50.940624 100.47188 50.940624Q101.8 50.940624 102.81563 51.628124Q103.83125 52.315624 104.34688 53.565624Q104.87813 54.8 104.87813 56.284374Q104.87813 57.878124 104.3 59.159374Q103.7375 60.425 102.64375 61.1125Q101.55 61.784374 100.34688 61.784374Q99.47188 61.784374 98.76875 61.409374Q98.08125 61.034374 97.62813 60.471874L97.62813 65.51875L95.8625 65.51875ZM97.45625 56.425Q97.45625 58.425 98.26875 59.378124Q99.08125 60.33125 100.2375 60.33125Q101.40938 60.33125 102.2375 59.346874Q103.08125 58.3625 103.08125 56.26875Q103.08125 54.3 102.25313 53.315624Q101.44063 52.315624 100.31563 52.315624Q99.19063 52.315624 98.31563 53.378124Q97.45625 54.425 97.45625 56.425ZM106.83125 61.55L106.83125 47.2375L108.58125 47.2375L108.58125 61.55L106.83125 61.55ZM117.64375 60.26875Q116.65938 61.096874 115.75313 61.440624Q114.84688 61.784374 113.81563 61.784374Q112.1125 61.784374 111.19063 60.95625Q110.26875 60.1125 110.26875 58.815624Q110.26875 58.05 110.6125 57.425Q110.97188 56.8 111.53438 56.425Q112.09688 56.034374 112.8 55.83125Q113.31563 55.70625 114.3625 55.565624Q116.4875 55.315624 117.4875 54.971874Q117.50313 54.6125 117.50313 54.503124Q117.50313 53.440624 117.00313 52.9875Q116.33125 52.39375 115.00313 52.39375Q113.75313 52.39375 113.15938 52.83125Q112.58125 53.26875 112.3 54.378124L110.58125 54.14375Q110.81563 53.034374 111.34688 52.3625Q111.87813 51.675 112.89375 51.315624Q113.90938 50.940624 115.25313 50.940624Q116.58125 50.940624 117.40938 51.253124Q118.2375 51.565624 118.62813 52.05Q119.01875 52.51875 119.175 53.2375Q119.26875 53.690624 119.26875 54.8625L119.26875 57.20625Q119.26875 59.659374 119.37813 60.315624Q119.4875 60.95625 119.83125 61.55L117.9875 61.55Q117.72188 61.003124 117.64375 60.26875ZM117.4875 56.346874Q116.53438 56.7375 114.6125 57.003124Q113.53438 57.159374 113.08125 57.3625Q112.64375 57.55 112.39375 57.925Q112.14375 58.3 112.14375 58.76875Q112.14375 59.471874 112.675 59.940624Q113.20625 60.409374 114.2375 60.409374Q115.25313 60.409374 116.03438 59.971874Q116.83125 59.51875 117.20625 58.753124Q117.4875 58.14375 117.4875 56.9875L117.4875 56.346874ZM121.8625 61.55L121.8625 51.175L123.45625 51.175L123.45625 52.659374Q124.59688 50.940624 126.75313 50.940624Q127.69063 50.940624 128.47188 51.284374Q129.26875 51.6125 129.65938 52.159374Q130.05 52.70625 130.20625 53.45625Q130.3 53.95625 130.3 55.175L130.3 61.55L128.53438 61.55L128.53438 55.2375Q128.53438 54.159374 128.33125 53.628124Q128.12813 53.096874 127.59688 52.784374Q127.08125 52.471874 126.37813 52.471874Q125.25313 52.471874 124.44063 53.190624Q123.62813 53.89375 123.62813 55.878124L123.62813 61.55L121.8625 61.55ZM135.70625 59.971874L135.95625 61.534374Q135.22188 61.690624 134.62813 61.690624Q133.675 61.690624 133.14375 61.39375Q132.62813 61.08125 132.40938 60.596874Q132.19063 60.096874 132.19063 58.51875L132.19063 52.55L130.90938 52.55L130.90938 51.175L132.19063 51.175L132.19063 48.6125L133.94063 47.55L133.94063 51.175L135.70625 51.175L135.70625 52.55L133.94063 52.55L133.94063 58.6125Q133.94063 59.3625 134.03438 59.58125Q134.12813 59.784374 134.33125 59.925Q134.55 60.05 134.94063 60.05Q135.22188 60.05 135.70625 59.971874ZM137.15938 58.45625L138.90938 58.175Q139.05 59.221874 139.72188 59.784374Q140.39375 60.33125 141.59688 60.33125Q142.8 60.33125 143.37813 59.846874Q143.97188 59.346874 143.97188 58.690624Q143.97188 58.096874 143.45625 57.753124Q143.09688 57.51875 141.65938 57.159374Q139.72188 56.659374 138.97188 56.315624Q138.2375 55.95625 137.84688 55.33125Q137.45625 54.690624 137.45625 53.925Q137.45625 53.2375 137.76875 52.64375Q138.09688 52.05 138.64375 51.659374Q139.05 51.3625 139.75313 51.159374Q140.47188 50.940624 141.28438 50.940624Q142.50313 50.940624 143.425 51.3Q144.34688 51.64375 144.78438 52.253124Q145.22188 52.846874 145.39375 53.846874L143.675 54.08125Q143.55 53.284374 142.9875 52.846874Q142.425 52.39375 141.40938 52.39375Q140.19063 52.39375 139.675 52.8Q139.15938 53.190624 139.15938 53.721874Q139.15938 54.065624 139.37813 54.346874Q139.58125 54.628124 140.05 54.815624Q140.31563 54.909374 141.59688 55.253124Q143.47188 55.753124 144.20625 56.08125Q144.94063 56.39375 145.3625 57.003124Q145.78438 57.596874 145.78438 58.503124Q145.78438 59.378124 145.26875 60.159374Q144.75313 60.940624 143.78438 61.3625Q142.81563 61.784374 141.59688 61.784374Q139.58125 61.784374 138.51875 60.940624Q137.45625 60.096874 137.15938 58.45625Z" fill-rule="nonzero"/></svg>