<svg xmlns="http://www.w3.org/2000/svg" xmlns:xlink="http://www.w3.org/1999/xlink" width="500" zoomAndPan="magnify" viewBox="0 0 375 172.499995" height="230" preserveAspectRatio="xMidYMid meet" version="1.0"><defs><clipPath id="3827e852d9"><path d="M 0.542969 12.386719 L 364 12.386719 L 364 107 L 0.542969 107 Z M 0.542969 12.386719 " clip-rule="nonzero"/></clipPath><clipPath id="ad67887ebe"><path d="M 300.136719 64.8125 L 374.394531 64.8125 L 374.394531 159.703125 L 300.136719 159.703125 Z M 300.136719 64.8125 " clip-rule="nonzero"/></clipPath></defs><path fill="#ffffff" d="M 344.960938 15.226562 L 18.675781 15.226562 C 10.261719 15.226562 3.441406 22.050781 3.441406 30.464844 L 3.441406 88.753906 C 3.441406 97.171875 10.261719 103.996094 18.675781 103.996094 L 344.960938 103.996094 C 353.375 103.996094 360.191406 97.171875 360.191406 88.753906 L 360.191406 30.464844 C 360.191406 22.050781 353.375 15.226562 344.960938 15.226562 " fill-opacity="1" fill-rule="nonzero"/><g clip-path="url(#3827e852d9)"><path fill="#00bf63" d="M 18.675781 18.066406 C 11.839844 18.066406 6.28125 23.628906 6.28125 30.464844 L 6.28125 88.753906 C 6.28125 95.59375 11.839844 101.15625 18.675781 101.15625 L 344.960938 101.15625 C 351.792969 101.15625 357.355469 95.59375 357.355469 88.753906 L 357.355469 30.464844 C 357.355469 23.628906 351.792969 18.066406 344.960938 18.066406 Z M 344.960938 106.835938 L 18.675781 106.835938 C 8.710938 106.835938 0.605469 98.726562 0.605469 88.753906 L 0.605469 30.464844 C 0.605469 20.496094 8.710938 12.386719 18.675781 12.386719 L 344.960938 12.386719 C 354.925781 12.386719 363.03125 20.496094 363.03125 30.464844 L 363.03125 88.753906 C 363.03125 98.726562 354.925781 106.835938 344.960938 106.835938 " fill-opacity="1" fill-rule="nonzero"/></g><path fill="#00bf63" d="M 86.28125 64.773438 C 86.070312 67.6875 84.996094 69.980469 83.054688 71.65625 C 81.113281 73.332031 78.558594 74.167969 75.386719 74.167969 C 71.914062 74.167969 69.183594 73 67.195312 70.660156 C 65.207031 68.320312 64.210938 65.113281 64.210938 61.03125 L 64.210938 59.375 C 64.210938 56.769531 64.667969 54.476562 65.585938 52.492188 C 66.503906 50.507812 67.8125 48.984375 69.519531 47.925781 C 71.222656 46.863281 73.203125 46.332031 75.460938 46.332031 C 78.582031 46.332031 81.097656 47.171875 83.007812 48.847656 C 84.917969 50.519531 86.019531 52.871094 86.316406 55.898438 L 80.742188 55.898438 C 80.605469 54.148438 80.117188 52.878906 79.28125 52.089844 C 78.445312 51.304688 77.171875 50.910156 75.460938 50.910156 C 73.601562 50.910156 72.207031 51.578125 71.285156 52.910156 C 70.359375 54.246094 69.886719 56.3125 69.863281 59.117188 L 69.863281 61.160156 C 69.863281 64.089844 70.304688 66.230469 71.191406 67.582031 C 72.078125 68.933594 73.476562 69.609375 75.386719 69.609375 C 77.109375 69.609375 78.394531 69.214844 79.242188 68.425781 C 80.09375 67.640625 80.578125 66.421875 80.703125 64.773438 L 86.28125 64.773438 " fill-opacity="1" fill-rule="nonzero"/><path fill="#00bf63" d="M 107.480469 59.636719 C 107.480469 56.796875 106.972656 54.636719 105.957031 53.164062 C 104.941406 51.6875 103.492188 50.945312 101.605469 50.945312 C 99.734375 50.945312 98.289062 51.675781 97.273438 53.132812 C 96.257812 54.589844 95.742188 56.726562 95.730469 59.542969 L 95.730469 60.863281 C 95.730469 63.628906 96.238281 65.777344 97.253906 67.300781 C 98.269531 68.828125 99.734375 69.589844 101.644531 69.589844 C 103.515625 69.589844 104.953125 68.855469 105.957031 67.386719 C 106.960938 65.914062 107.46875 63.773438 107.480469 60.957031 Z M 113.132812 60.863281 C 113.132812 63.53125 112.664062 65.867188 111.722656 67.878906 C 110.777344 69.886719 109.429688 71.4375 107.675781 72.53125 C 105.921875 73.621094 103.910156 74.167969 101.644531 74.167969 C 99.398438 74.167969 97.398438 73.628906 95.636719 72.546875 C 93.875 71.46875 92.511719 69.929688 91.546875 67.925781 C 90.578125 65.921875 90.089844 63.617188 90.078125 61.011719 L 90.078125 59.671875 C 90.078125 57.007812 90.558594 54.660156 91.519531 52.632812 C 92.480469 50.605469 93.835938 49.046875 95.589844 47.960938 C 97.34375 46.875 99.347656 46.332031 101.605469 46.332031 C 103.863281 46.332031 105.867188 46.875 107.621094 47.960938 C 109.375 49.046875 110.730469 50.605469 111.691406 52.632812 C 112.652344 54.660156 113.132812 57 113.132812 59.65625 L 113.132812 60.863281 " fill-opacity="1" fill-rule="nonzero"/><path fill="#00bf63" d="M 140.152344 73.796875 L 134.574219 73.796875 L 123.71875 55.96875 L 123.71875 73.796875 L 118.140625 73.796875 L 118.140625 46.707031 L 123.71875 46.707031 L 134.59375 64.566406 L 134.59375 46.707031 L 140.152344 46.707031 L 140.152344 73.796875 " fill-opacity="1" fill-rule="nonzero"/><path fill="#00bf63" d="M 165.820312 51.226562 L 157.527344 51.226562 L 157.527344 73.796875 L 151.945312 73.796875 L 151.945312 51.226562 L 143.765625 51.226562 L 143.765625 46.707031 L 165.820312 46.707031 L 165.820312 51.226562 " fill-opacity="1" fill-rule="nonzero"/><path fill="#00bf63" d="M 174.730469 63.691406 L 181.5 63.691406 L 178.09375 53.550781 Z M 183.003906 68.214844 L 173.222656 68.214844 L 171.363281 73.796875 L 165.433594 73.796875 L 175.507812 46.707031 L 180.679688 46.707031 L 190.8125 73.796875 L 184.882812 73.796875 L 183.003906 68.214844 " fill-opacity="1" fill-rule="nonzero"/><path fill="#00bf63" d="M 215.15625 64.773438 C 214.945312 67.6875 213.871094 69.980469 211.929688 71.65625 C 209.988281 73.332031 207.433594 74.167969 204.261719 74.167969 C 200.789062 74.167969 198.058594 73 196.070312 70.660156 C 194.078125 68.320312 193.085938 65.113281 193.085938 61.03125 L 193.085938 59.375 C 193.085938 56.769531 193.542969 54.476562 194.460938 52.492188 C 195.378906 50.507812 196.6875 48.984375 198.394531 47.925781 C 200.097656 46.863281 202.078125 46.332031 204.335938 46.332031 C 207.457031 46.332031 209.972656 47.171875 211.882812 48.847656 C 213.792969 50.519531 214.894531 52.871094 215.191406 55.898438 L 209.613281 55.898438 C 209.476562 54.148438 208.992188 52.878906 208.152344 52.089844 C 207.320312 51.304688 206.042969 50.910156 204.335938 50.910156 C 202.476562 50.910156 201.082031 51.578125 200.160156 52.910156 C 199.234375 54.246094 198.761719 56.3125 198.738281 59.117188 L 198.738281 61.160156 C 198.738281 64.089844 199.179688 66.230469 200.066406 67.582031 C 200.953125 68.933594 202.351562 69.609375 204.261719 69.609375 C 205.980469 69.609375 207.269531 69.214844 208.117188 68.425781 C 208.964844 67.640625 209.453125 66.421875 209.578125 64.773438 L 215.15625 64.773438 " fill-opacity="1" fill-rule="nonzero"/><path fill="#00bf63" d="M 239.609375 51.226562 L 231.316406 51.226562 L 231.316406 73.796875 L 225.738281 73.796875 L 225.738281 51.226562 L 217.558594 51.226562 L 217.558594 46.707031 L 239.609375 46.707031 L 239.609375 51.226562 " fill-opacity="1" fill-rule="nonzero"/><path fill="#00bf63" d="M 273.550781 46.707031 L 273.550781 64.546875 C 273.550781 67.511719 272.625 69.855469 270.769531 71.582031 C 268.917969 73.304688 266.386719 74.167969 263.175781 74.167969 C 260.015625 74.167969 257.503906 73.332031 255.644531 71.65625 C 253.785156 69.980469 252.835938 67.679688 252.800781 64.753906 L 252.800781 46.707031 L 258.378906 46.707031 L 258.378906 64.585938 C 258.378906 66.359375 258.800781 67.652344 259.652344 68.464844 C 260.5 69.277344 261.675781 69.683594 263.175781 69.683594 C 266.3125 69.683594 267.90625 68.035156 267.953125 64.734375 L 267.953125 46.707031 L 273.550781 46.707031 " fill-opacity="1" fill-rule="nonzero"/><path fill="#00bf63" d="M 293.117188 66.6875 C 293.117188 65.632812 292.742188 64.824219 292 64.261719 C 291.253906 63.695312 289.917969 63.101562 287.980469 62.472656 C 286.046875 61.847656 284.515625 61.230469 283.390625 60.621094 C 280.316406 58.960938 278.78125 56.722656 278.78125 53.90625 C 278.78125 52.441406 279.191406 51.136719 280.015625 49.988281 C 280.839844 48.84375 282.023438 47.945312 283.566406 47.300781 C 285.109375 46.65625 286.84375 46.332031 288.765625 46.332031 C 290.699219 46.332031 292.421875 46.683594 293.929688 47.382812 C 295.445312 48.085938 296.621094 49.074219 297.457031 50.351562 C 298.292969 51.628906 298.710938 53.082031 298.710938 54.707031 L 293.132812 54.707031 C 293.132812 53.464844 292.742188 52.5 291.960938 51.8125 C 291.179688 51.125 290.085938 50.78125 288.671875 50.78125 C 287.308594 50.78125 286.246094 51.070312 285.492188 51.644531 C 284.734375 52.222656 284.355469 52.980469 284.355469 53.925781 C 284.355469 54.804688 284.800781 55.542969 285.6875 56.140625 C 286.570312 56.734375 287.878906 57.292969 289.601562 57.8125 C 292.773438 58.769531 295.085938 59.953125 296.539062 61.367188 C 297.988281 62.78125 298.710938 64.542969 298.710938 66.652344 C 298.710938 68.996094 297.828125 70.835938 296.054688 72.167969 C 294.28125 73.5 291.894531 74.167969 288.894531 74.167969 C 286.8125 74.167969 284.914062 73.785156 283.203125 73.023438 C 281.492188 72.261719 280.1875 71.214844 279.292969 69.886719 C 278.390625 68.558594 277.941406 67.023438 277.941406 65.273438 L 283.539062 65.273438 C 283.539062 68.261719 285.324219 69.757812 288.894531 69.757812 C 290.21875 69.757812 291.253906 69.488281 292 68.949219 C 292.742188 68.410156 293.117188 67.65625 293.117188 66.6875 " fill-opacity="1" fill-rule="nonzero"/><path fill="#010101" d="M 334.34375 62.027344 C 334.042969 62.027344 333.742188 61.941406 333.484375 61.753906 C 332.804688 61.277344 332.644531 60.34375 333.117188 59.667969 L 338.269531 52.335938 C 338.746094 51.65625 339.683594 51.492188 340.359375 51.96875 C 341.035156 52.445312 341.199219 53.382812 340.722656 54.058594 L 335.570312 61.390625 C 335.277344 61.804688 334.8125 62.027344 334.34375 62.027344 " fill-opacity="1" fill-rule="nonzero"/><path fill="#010101" d="M 318.792969 62.027344 C 318.320312 62.027344 317.859375 61.804688 317.566406 61.390625 L 312.414062 54.058594 C 311.9375 53.382812 312.101562 52.445312 312.78125 51.96875 C 313.457031 51.492188 314.390625 51.65625 314.867188 52.335938 L 320.019531 59.667969 C 320.496094 60.34375 320.328125 61.277344 319.652344 61.753906 C 319.390625 61.941406 319.089844 62.027344 318.792969 62.027344 " fill-opacity="1" fill-rule="nonzero"/><path fill="#010101" d="M 326.632812 58.386719 C 325.789062 58.386719 325.105469 57.707031 325.105469 56.863281 L 325.105469 44.921875 C 325.105469 44.078125 325.789062 43.398438 326.632812 43.398438 C 327.472656 43.398438 328.15625 44.078125 328.15625 44.921875 L 328.15625 56.863281 C 328.15625 57.707031 327.472656 58.386719 326.632812 58.386719 " fill-opacity="1" fill-rule="nonzero"/><path fill="#ffffff" d="M 372.671875 114.339844 L 372.574219 107.300781 C 372.527344 104.058594 369.863281 101.46875 366.625 101.511719 L 365.207031 101.53125 C 362.058594 101.578125 359.539062 104.105469 359.449219 107.226562 L 359.421875 107.21875 L 359.375 103.984375 C 359.332031 100.742188 356.671875 98.152344 353.429688 98.195312 L 352.015625 98.214844 C 348.773438 98.261719 346.183594 100.925781 346.230469 104.167969 L 346.1875 101.148438 C 346.144531 97.90625 343.480469 95.316406 340.242188 95.363281 L 338.824219 95.382812 C 335.585938 95.425781 332.996094 98.089844 333.042969 101.332031 L 332.636719 72.148438 C 332.59375 68.996094 330.003906 66.476562 326.855469 66.519531 C 323.703125 66.5625 321.1875 69.152344 321.230469 72.304688 L 322.023438 129.488281 C 322.023438 129.488281 318.195312 117.316406 308.175781 116.539062 C 307.976562 116.523438 307.777344 116.519531 307.585938 116.519531 C 302.027344 116.558594 299.652344 123.640625 303.792969 127.351562 C 308.789062 131.824219 313.285156 140.039062 316.441406 146.890625 C 319.664062 153.871094 326.703125 158.285156 334.390625 158.179688 L 351.136719 157.945312 C 360.425781 157.816406 368.414062 151.316406 370.402344 142.238281 C 370.433594 142.089844 370.46875 141.941406 370.5 141.789062 C 373.117188 129.625 373.058594 119.847656 372.671875 114.339844 " fill-opacity="1" fill-rule="nonzero"/><g clip-path="url(#ad67887ebe)"><path fill="#010101" d="M 307.636719 118.042969 C 307.625 118.042969 307.609375 118.042969 307.597656 118.042969 C 305.730469 118.054688 304.214844 119.128906 303.542969 120.917969 C 303 122.351562 303.007812 124.601562 304.808594 126.214844 C 309.082031 130.039062 313.457031 136.777344 317.824219 146.25 C 320.75 152.59375 327.125 156.65625 334.117188 156.65625 C 334.199219 156.65625 334.285156 156.65625 334.367188 156.65625 L 351.113281 156.421875 C 359.753906 156.300781 367.074219 150.332031 368.914062 141.910156 L 369.011719 141.464844 C 371.53125 129.765625 371.566406 120.316406 371.152344 114.449219 C 371.148438 114.421875 371.148438 114.394531 371.148438 114.363281 L 371.046875 107.320312 C 371.03125 106.160156 370.566406 105.078125 369.734375 104.265625 C 368.90625 103.457031 367.847656 103.058594 366.648438 103.039062 L 365.226562 103.054688 C 362.910156 103.089844 361.039062 104.941406 360.972656 107.269531 C 360.957031 107.710938 360.753906 108.121094 360.414062 108.402344 C 360.078125 108.679688 359.628906 108.796875 359.199219 108.726562 C 358.472656 108.605469 357.910156 107.976562 357.898438 107.242188 L 357.855469 104.003906 C 357.839844 102.84375 357.371094 101.757812 356.542969 100.949219 C 355.707031 100.140625 354.589844 99.699219 353.453125 99.722656 L 352.035156 99.742188 C 350.875 99.757812 349.792969 100.222656 348.984375 101.054688 C 348.175781 101.886719 347.738281 102.984375 347.753906 104.144531 C 347.765625 104.984375 347.09375 105.675781 346.25 105.691406 C 346.246094 105.691406 346.238281 105.691406 346.230469 105.691406 C 345.398438 105.691406 344.71875 105.019531 344.707031 104.1875 L 344.664062 101.167969 C 344.632812 98.773438 342.683594 96.90625 340.261719 96.886719 L 338.847656 96.90625 C 337.6875 96.921875 336.601562 97.386719 335.792969 98.222656 C 334.988281 99.050781 334.550781 100.144531 334.5625 101.300781 L 334.5625 101.308594 C 334.578125 102.152344 333.902344 102.84375 333.0625 102.855469 C 333.058594 102.855469 333.050781 102.855469 333.042969 102.855469 C 332.210938 102.855469 331.53125 102.1875 331.519531 101.351562 L 331.113281 72.167969 C 331.082031 69.878906 329.210938 68.042969 326.933594 68.042969 C 326.914062 68.042969 326.894531 68.042969 326.875 68.042969 C 324.570312 68.074219 322.71875 69.976562 322.753906 72.28125 L 323.546875 129.464844 C 323.554688 130.222656 323.011719 130.871094 322.269531 130.992188 C 321.535156 131.113281 320.800781 130.667969 320.574219 129.945312 C 320.539062 129.835938 316.914062 118.746094 308.058594 118.0625 C 307.917969 118.050781 307.773438 118.042969 307.636719 118.042969 Z M 334.117188 159.703125 C 325.941406 159.707031 318.480469 154.949219 315.058594 147.527344 C 310.925781 138.5625 306.679688 131.980469 302.777344 128.484375 C 300.347656 126.308594 299.53125 122.917969 300.691406 119.839844 C 301.816406 116.871094 304.449219 115.015625 307.574219 114.996094 C 307.796875 115 308.046875 115.003906 308.289062 115.019531 C 314.136719 115.472656 318.027344 119.304688 320.40625 122.847656 L 319.707031 72.324219 C 319.648438 68.339844 322.847656 65.050781 326.832031 64.992188 C 330.863281 64.882812 334.105469 68.140625 334.160156 72.125 L 334.484375 95.328125 C 335.726562 94.394531 337.222656 93.882812 338.804688 93.859375 L 340.21875 93.839844 C 343.378906 93.773438 346.117188 95.753906 347.207031 98.539062 C 348.527344 97.367188 350.207031 96.71875 351.992188 96.691406 L 353.410156 96.671875 C 353.445312 96.671875 353.480469 96.671875 353.515625 96.671875 C 355.449219 96.671875 357.273438 97.414062 358.664062 98.765625 C 359.53125 99.609375 360.167969 100.628906 360.53125 101.75 C 361.789062 100.683594 363.410156 100.03125 365.183594 100.007812 L 366.601562 99.988281 C 368.546875 100.019531 370.441406 100.703125 371.859375 102.082031 C 373.273438 103.457031 374.066406 105.304688 374.09375 107.28125 L 374.191406 114.277344 C 374.617188 120.34375 374.578125 130.082031 371.988281 142.113281 L 371.890625 142.566406 C 369.746094 152.378906 361.21875 159.332031 351.15625 159.46875 L 334.410156 159.703125 C 334.3125 159.703125 334.214844 159.703125 334.117188 159.703125 " fill-opacity="1" fill-rule="nonzero"/></g></svg>